<svg xmlns="http://www.w3.org/2000/svg" xmlns:xlink="http://www.w3.org/1999/xlink" width="50" height="50" viewBox="0 0 32 32"><g fill="none" fill-rule="evenodd" transform="translate(4.148 3.556)"><path fill="#ef5243" fill-rule="nonzero" d="M0,14.8912784 L0,13.5471446 C0.0293941552,13.5006531 0.0555800854,13.4522091 0.0783751493,13.4021505 C0.313500597,12.7657443 0.487493429,12.0987718 0.789237754,11.4968507 C2.23409582,8.61465027 4.19841021,6.02381711 6.58351254,3.85448984 C7.39234409,3.11384468 8.22939068,2.41944086 9.23102509,1.95075747 C10.1840669,1.50480287 11.1723775,1.34962007 12.2131995,1.55261171 C12.3713662,1.57615189 12.5328985,1.56026788 12.6834504,1.50637037 C14.3732186,0.931880526 16.0864994,0.449089606 17.8562103,0.183397849 C18.1846022,0.134021505 18.509859,0.061916368 18.8358996,-5.68434189e-14 L20.5342891,-5.68434189e-14 C20.6965257,0.0525113501 20.8611135,0.100320191 21.0217826,0.156750299 C21.4073883,0.295474313 21.7232401,0.524329749 21.789859,0.952258065 C21.9505281,1.97113501 22.1166834,2.99001195 22.2256249,4.01907766 C22.3596464,5.28718757 22.2742174,6.55608124 22.0876846,7.81556989 C22.054767,8.03658781 22.1213859,8.18314934 22.2742174,8.34303465 C22.7131183,8.80126802 23.1386953,9.27151892 23.5509486,9.75378734 C23.8882078,10.1493776 24.1169528,10.6257723 24.2147861,11.136325 C24.3652664,11.8910777 24.2218399,12.608994 23.9577157,13.3112354 C23.6018925,14.2517372 23.0446452,15.0832975 22.4615341,15.8976153 C20.345405,18.8492234 17.7942939,21.3964158 15.0590012,23.7664803 C14.7635075,24.020273 14.4449675,24.2459274 14.1075269,24.4405066 C13.1215675,25.0173477 12.063503,25.2665806 10.9254958,25.0392927 C10.0806117,24.8700024 9.34310155,24.4553978 8.63615771,23.9835795 C6.2993316,22.4164123 4.169298,20.5610264 2.29639188,18.4612664 C1.35589008,17.4086882 0.399713262,16.3341649 0.0274313023,14.9038184 C0.0289988053,14.8967646 0.0101887694,14.8912784 0,14.8912784 Z M18.8390346,15.2455341 L18.9056535,15.0887838 C19.2371804,14.160822 19.6172999,13.246184 19.8892616,12.3009797 C20.5107766,10.1393931 20.8673835,7.9221601 21.0742939,5.68611708 C21.1902891,4.4321147 21.1268053,3.17811231 20.7756846,1.94527121 C20.6573381,1.53066667 20.4128076,1.33002628 20.0107431,1.29005496 C19.811985,1.26629735 19.6112688,1.26367017 19.411957,1.28221744 C18.5960717,1.37548387 17.7715651,1.43896774 16.9666523,1.59571804 C13.12627,2.34263321 9.81883871,4.12566786 6.94874074,6.75985663 C5.52309677,8.06793787 4.41252091,9.59311828 3.70636081,11.4004492 C3.49239665,11.9490753 3.26981123,12.5071063 3.32780884,13.1066762 C3.47515412,14.6240191 4.16642294,15.8498065 5.38123775,16.775417 C5.51049374,16.8574632 5.64597409,16.9292651 5.78643728,16.9901649 L5.76684349,16.5833978 C6.13755795,16.9564636 6.53335245,17.308368 6.8735006,17.7072975 C7.21364875,18.106227 7.28888889,18.5890179 7.13213859,19.0968889 C6.91660693,19.7787527 7.11881481,20.3508913 7.607092,20.8281959 C8.09536918,21.3055006 8.6055914,21.7498877 9.11659737,22.1981935 C10.0296679,22.9991876 11.1018399,23.5305711 12.2163345,23.9773094 C12.580779,24.123871 12.9663847,24.1857873 13.3378829,23.9812282 C13.5137663,23.8872965 13.6817743,23.7793101 13.8402676,23.6583226 C14.5668053,23.092454 15.1538351,22.3917802 15.75027,21.6989438 C16.7613094,20.5233166 17.5873835,19.2277754 18.1242533,17.7747001 C18.4275651,16.9541123 18.6062605,16.0880669 18.8413859,15.242399 L18.8390346,15.2455341 Z"></path><path fill="#b72c2c" fill-rule="nonzero" d="M18.8406022,15.2400478 C18.6054767,16.0857157 18.4267814,16.9517611 18.1234695,17.7723489 C17.5865998,19.2254241 16.7605257,20.5154791 15.7494863,21.6965926 C15.1530514,22.3917802 14.5660215,23.092454 13.8394839,23.6559713 C13.6809905,23.7769589 13.5129825,23.8849453 13.3370992,23.9788769 C12.965601,24.1834361 12.5799952,24.1215197 12.2155508,23.9749582 C11.1010562,23.5258686 10.0288841,22.9968363 9.11581362,22.1958423 C8.60480765,21.7475364 8.09693668,21.2992306 7.60630824,20.8258447 C7.11567981,20.3524588 6.91582318,19.7787527 7.13213859,19.0968889 C7.28888889,18.5890179 7.21051374,18.1046595 6.8735006,17.7033787 C6.53648746,17.302098 6.13755795,16.9525448 5.76684349,16.5794791 C5.68846834,16.3349486 5.61557945,16.0896344 5.53171804,15.8458877 C5.37496774,15.3803393 5.18294863,14.9234122 5.06146714,14.4484588 C4.84750299,13.637276 4.76050657,12.8135532 5.00346953,11.9874791 C5.09645056,12.5777612 5.29815377,13.145666 5.59833692,13.662356 C5.96490706,14.3093527 6.55055511,14.8041099 7.24970131,15.0574337 C7.46523297,15.1358088 7.62119952,15.0934863 7.76305854,14.9006834 C8.03110155,14.5338877 8.32108961,14.1835508 8.60245639,13.8269438 C8.65418399,14.8411183 9.15500119,15.6295723 9.83216249,15.7424325 L9.80316368,15.5018208 C10.1754456,15.6287885 10.50854,15.5261171 10.8220406,15.3207742 C11.0054385,15.2008602 11.1849176,15.0746762 11.3667479,14.9516272 C11.4286643,14.9516272 11.5234982,14.9751398 11.549362,14.9437897 C12.1646069,14.2697634 12.6372091,13.517362 12.6364253,12.571374 C12.6364253,12.0102079 12.5666714,11.4490418 12.5157276,10.8886595 C12.4804588,10.4967838 12.4138399,10.104908 12.6724779,9.77024612 C13.0643536,9.27334767 13.4499594,8.76861171 13.8912115,8.3195221 C14.3518377,7.8604847 14.9326454,7.54074166 15.5668722,7.39704659 C15.9422891,7.30613142 16.1578208,7.41977539 16.2910585,7.7654098 C16.3380151,7.88551241 16.367829,8.0116278 16.3796225,8.14004301 C16.415675,8.5538638 16.4399713,8.96925209 16.4713214,9.42461171 L16.6515842,9.17459498 C16.6225854,9.62681959 16.6139642,10.0821792 16.5583178,10.5320526 C16.4313501,11.5564158 16.0817969,12.5219976 15.7306762,13.4860119 C15.63385,13.5841005 15.5440208,13.6888575 15.4618495,13.7995125 C14.9502936,14.5774665 14.2964209,15.2518143 13.5346045,15.7871063 C12.9217109,16.2220884 12.2367121,16.4438901 11.4772569,16.3757037 C11.2797515,16.3576774 11.0853811,16.2934098 10.8894432,16.2730323 C10.7930418,16.2636272 10.637859,16.2730323 10.6057252,16.3341649 C10.5594839,16.41254 10.5892664,16.5496965 10.6104277,16.6570705 C10.6345177,16.7232776 10.6715518,16.7840241 10.7193692,16.8357658 C11.0493286,17.3060167 11.4882294,17.585816 12.066638,17.6336249 L11.7178686,18.0748769 C11.9749391,18.4714552 12.3574098,18.5772616 12.7626093,18.5200478 C13.2328602,18.4534289 13.6984086,18.3139211 14.1655245,18.2065472 L15.6671924,17.8577778 C15.3772043,18.1626571 15.1060263,18.4886977 14.7933094,18.7669295 C13.7446499,19.6995938 12.5329701,20.2756511 11.1135962,20.3430538 C10.6935054,20.3626476 10.2710633,20.3242437 9.85018877,20.3132712 C9.51004062,20.3054337 9.39796416,20.474724 9.56098447,20.7717658 C9.62936297,20.9086653 9.72450589,21.0304589 9.84078375,21.1299403 C10.2193357,21.4238471 10.603374,21.7130514 11.0054385,21.9748244 C11.4310155,22.2514886 11.8675651,22.2209223 12.2931422,21.9387718 C12.8895771,21.5421935 13.5024707,21.1699116 14.0871493,20.7584421 C15.8694002,19.5044397 17.339718,17.9596655 18.3977826,16.0426093 C18.5446053,15.7724763 18.6922119,15.5049558 18.8406022,15.2400478 Z"></path><path fill="#4F403F" fill-rule="nonzero" d="M18.8406022,15.2400478 C18.6927344,15.5049558 18.5448666,15.770125 18.3969988,16.0355556 C17.3373668,17.9526117 15.867049,19.4973859 14.0863656,20.7513883 C13.501687,21.1628578 12.8887933,21.5351398 12.2923584,21.931718 C11.8675651,22.2138686 11.4302318,22.2452186 11.0046547,21.9677706 C10.6025902,21.7059976 10.2209032,21.4191446 9.84,21.1228865 C9.72372214,21.0234051 9.62857921,20.9016115 9.56020072,20.7647121 C9.39718041,20.4676703 9.50925687,20.2983799 9.84940502,20.3062174 C10.2702796,20.31719 10.6927216,20.3555938 11.1128124,20.336 C12.5321864,20.2685974 13.7438662,19.69254 14.7925257,18.7598757 C15.1060263,18.481644 15.3764205,18.1556033 15.6664086,17.850724 L15.6664086,17.850724 L15.7447838,17.7794026 C16.1915221,17.1382939 16.6915556,16.5254002 17.0771613,15.8505902 C17.9161497,14.3908658 18.5150007,12.8057496 18.8507909,11.1559188 C18.9052143,11.0438932 18.9515734,10.9281264 18.9895149,10.8095006 C19.3956273,9.21593984 19.6209395,7.58170345 19.66119,5.93770131 C19.6760812,5.26994504 19.66119,4.59827001 19.6118136,3.93208124 C19.5498973,3.0699546 19.1932903,2.756454 18.3350824,2.81053286 C17.3616119,2.8576005 16.3972721,3.02099887 15.4626332,3.29724253 C13.5581171,3.8858399 11.8346476,4.8294767 10.2295245,5.98942891 C9.445773,6.55921625 8.70747909,7.20032497 7.94802389,7.80929988 C6.76897717,8.81011915 5.81741649,10.0513434 5.15708483,11.4498256 C5.07870968,11.6167646 5.05206213,11.8072162 5.00033453,11.9874791 C4.75737157,12.8135532 4.84358423,13.637276 5.05833214,14.4484588 C5.18294863,14.9234122 5.37183274,15.3803393 5.52858303,15.8458877 C5.61087694,16.0896344 5.68533333,16.3349486 5.76370848,16.5794791 L5.78330227,16.9862461 C5.64393843,16.9254519 5.50951189,16.853915 5.38123775,16.772282 C4.16642294,15.8474552 3.47515412,14.6208841 3.32780884,13.1035412 C3.26981123,12.5039713 3.49239665,11.943589 3.70636081,11.3973142 C4.41173716,9.58998327 5.52309677,8.06480287 6.94874074,6.75672162 C9.81883871,4.12253286 13.1286213,2.33949821 16.9666523,1.59258303 C17.7715651,1.43583274 18.5960717,1.37470012 19.411957,1.27908244 C19.6112688,1.26053517 19.811985,1.26316234 20.0107431,1.28691995 C20.4128076,1.32689128 20.6573381,1.52753166 20.7756846,1.9421362 C21.1268053,3.17262605 21.1902891,4.42741219 21.0742939,5.68298208 C20.8673835,7.91902509 20.5107766,10.1362581 19.8892616,12.2978447 C19.6172999,13.243049 19.2371804,14.157687 18.9056535,15.0856487 L18.8390346,15.242399 L18.8406022,15.2400478 Z"></path><path fill="#E27B11" fill-rule="nonzero" d="M18.8406565,15.242399 L18.9256565,15.0856487 L18.8406565,15.242399 Z"></path><path fill="#ef5243" fill-rule="nonzero" d="M5.00190203 11.9913978C5.05206213 11.811135 5.08027718 11.6206834 5.15865233 11.4537443 5.81620328 10.0567872 6.76421997 8.81618926 7.93940263 7.81478614 7.8893686 8.01931706 7.84960873 8.22622534 7.8202724 8.43473357 7.77403106 8.91752449 7.96840143 9.13540741 8.4472736 9.16205496 8.54074383 9.16820388 8.63460988 9.16373407 8.72707288 9.14873118 9.27961768 9.05076225 9.83686499 8.96768459 10.382356 8.83993309 11.0422748 8.6831828 11.6927885 8.48959618 12.347221 8.31168459 11.7084636 8.94730705 11.0524636 9.56568698 10.4340836 10.221687 9.47085305 11.2405639 8.81015054 12.4224612 8.60088889 13.8269438 8.3195221 14.1835508 8.02953405 14.5323202 7.76149104 14.9006834 7.61963202 15.0958375 7.46366547 15.1358088 7.24813381 15.0574337 6.54898761 14.8041099 5.96333956 14.3093527 5.59676941 13.662356 5.29703989 13.146863 5.0953511 12.5803275 5.00190203 11.9913978zM18.8406022 11.1574863C18.504812 12.8073171 17.9059609 14.3924333 17.0669725 15.8521577 16.6845018 16.529319 16.1844683 17.1398614 15.734595 17.7809701L15.6562198 17.8522915 15.6562198 17.8522915 14.154552 18.2010609C13.6843011 18.3092186 13.2250227 18.4487264 12.7516368 18.5145615 12.3464373 18.5717754 11.9639665 18.4659689 11.7068961 18.0693907L12.0556655 17.6281386C12.7468359 17.5355902 13.3867551 17.2131461 13.8724014 16.7127168 14.6564 15.9335967 15.2643873 14.995559 15.6554361 13.9617491 15.7118662 13.8159713 15.7001099 13.6482485 15.7197037 13.4844444 16.0708244 12.5204301 16.4203775 11.5548483 16.5473453 10.5304851 16.6029916 10.0806117 16.6116129 9.62525209 16.6406117 9.17302748 16.7119331 8.99198088 16.7824707 8.81171804 16.8537921 8.6314552 17.4854958 8.78271924 17.9965018 9.10954361 18.2911924 9.69970848 18.4565639 10.0296679 18.5631541 10.3894098 18.6924731 10.7373955 18.752822 10.874552 18.7943608 11.0171947 18.8406022 11.1574863z"></path><path fill="#4F403F" fill-rule="nonzero" d="M16.8624134,8.63067145 C16.791092,8.81093429 16.7205544,8.99119713 16.649233,9.17224373 L16.4689701,9.42226045 C16.4376201,8.96690084 16.4133238,8.55151254 16.3772712,8.13769176 C16.3654777,8.00927654 16.3356638,7.88316116 16.2887073,7.76305854 C16.1554695,7.41742413 15.9399379,7.30378017 15.5645209,7.39469534 C14.9302941,7.53839041 14.3494865,7.85813344 13.8888602,8.31717085 C13.4476081,8.76626045 13.0612186,9.27099642 12.6701266,9.76789486 C12.4091374,10.1002055 12.4757563,10.4983513 12.5133763,10.8863082 C12.5643202,11.4466906 12.6332903,12.0078566 12.6340741,12.5690227 C12.6340741,13.5150108 12.1638232,14.2674122 11.5470108,14.9414385 C11.5180119,14.9727885 11.426313,14.9477085 11.3643967,14.949276 C11.4560956,14.684368 11.5611183,14.422595 11.6371422,14.1537682 C11.8815262,13.3390746 11.8512328,12.4666243 11.5509295,11.6708435 C11.432583,11.3573429 11.2922915,11.2664277 11.0603011,11.407503 C10.3102509,11.8652139 9.74908483,12.4969176 9.61271207,13.3833405 C9.51165616,14.0940066 9.57712294,14.8184341 9.80394743,15.4994695 L9.83294624,15.7400812 C9.15578495,15.6264373 8.657319,14.838767 8.60324014,13.8245926 C8.81250179,12.4185424 9.4732043,11.2382127 10.4364349,10.2193357 C11.0508961,9.56176822 11.7084636,8.94338829 12.347221,8.30776583 C12.4522437,8.22939068 12.5604014,8.16198805 12.6607216,8.08126165 C13.640411,7.29124014 14.7541219,6.74888411 15.9234791,6.30998327 C16.3043823,6.1673405 16.6962581,6.04821027 17.1774815,6.09131661 C17.1774815,6.33506332 17.2049128,6.56940502 17.1719952,6.79669295 C17.08108,7.40880287 16.9666523,8.01856153 16.8624134,8.63067145 Z"></path><path fill="#AD5F70" fill-rule="nonzero" d="M9.80159618,15.4994695 C9.57477169,14.8184341 9.50930491,14.0940066 9.61036081,13.3833405 C9.74673357,12.4969176 10.3078996,11.8652139 11.0579498,11.407503 C11.2930753,11.2664277 11.4302318,11.3573429 11.5485783,11.6708435 C11.8488816,12.4666243 11.879175,13.3390746 11.6347909,14.1537682 C11.5564158,14.422595 11.4537443,14.684368 11.3620454,14.949276 C11.1802151,15.072325 11.000736,15.198509 10.8173381,15.3184229 C10.50227,15.5237658 10.1738781,15.6264373 9.80159618,15.4994695 Z"></path><path fill="#50413E" fill-rule="nonzero" d="M15.728325,13.4805257 C15.7087312,13.637276 15.7204875,13.8120526 15.6640573,13.9578303 C15.2730086,14.9916402 14.6650212,15.9296779 13.8810227,16.7087981 C13.3953763,17.2092273 12.7554572,17.5316715 12.0642867,17.6242198 C11.4858781,17.576411 11.0454098,17.2934767 10.7170179,16.8263608 C10.6692006,16.7746191 10.6321665,16.7138725 10.6080765,16.6476655 C10.5869152,16.5402915 10.5571326,16.40627 10.603374,16.3247599 C10.6355078,16.267546 10.7906906,16.2542222 10.887092,16.2636272 C11.0845974,16.2840048 11.2789677,16.3482724 11.4749056,16.3662987 C12.2343608,16.4344851 12.9193596,16.2095484 13.5322533,15.7777013 C14.2937057,15.2435662 14.9475547,14.5705724 15.4594982,13.7940263 C15.5416696,13.6833713 15.6314988,13.5786142 15.728325,13.4805257 Z"></path><path fill="#FCE3C2" fill-rule="nonzero" d="M16.8624134,8.63067145 C16.9666523,8.01856153 17.08108,7.40880287 17.169644,6.79512545 C17.2025615,6.56940502 17.1751302,6.33506332 17.1751302,6.0897491 C16.6962581,6.04664277 16.3043823,6.16812425 15.9211278,6.30841577 C14.7541219,6.74731661 13.637276,7.28888889 12.6607216,8.08126165 C12.5604014,8.1596368 12.4522437,8.23252569 12.347221,8.30776583 C11.6927885,8.48567742 11.0422748,8.68083154 10.382356,8.83601434 C9.83372999,8.96376583 9.27961768,9.04684349 8.72707288,9.14481243 C8.63460988,9.15981531 8.54074383,9.16428512 8.4472736,9.1581362 C7.96683393,9.13148865 7.77246356,8.91360573 7.8202724,8.43081481 C7.84960873,8.22230658 7.8893686,8.01539831 7.93940263,7.81086738 C8.69885783,7.20189247 9.43401673,6.55686499 10.2209032,5.99099642 C11.8260263,4.83104421 13.5494958,3.88740741 15.4540119,3.29881004 C16.3886508,3.02256637 17.3529906,2.859168 18.3264612,2.81210036 C19.1846691,2.75958901 19.541276,3.0683871 19.6031924,3.93364875 C19.6502174,4.59983751 19.66746,5.27151254 19.6525687,5.93926882 C19.6123182,7.58327095 19.387006,9.21750734 18.9808937,10.8110681 C18.9429521,10.9296939 18.896593,11.0454607 18.8421697,11.1574863 C18.7959283,11.0171947 18.7543895,10.874552 18.7026619,10.7366117 C18.5733429,10.388626 18.4675364,10.0312354 18.3013811,9.69892473 C18.0051231,9.10875986 17.4941171,8.78193548 16.8624134,8.63067145 Z"></path><path fill="#E27B11" fill-rule="nonzero" d="M15.6632736,17.8729432 L15.7632736,17.7819432 L15.6632736,17.8729432 Z"></path></g></svg>