<svg width="24" height="24" viewBox="0 0 24 24" fill="none" xmlns="http://www.w3.org/2000/svg">
<path d="M12 0C9.62661 0 7.30653 0.703788 5.33314 2.02236C3.35975 3.34094 1.82167 5.21509 0.913421 7.4078C0.00516894 9.60051 -0.232471 12.0133 0.230552 14.3411C0.693575 16.6689 1.83647 18.8071 3.5147 20.4853C5.19293 22.1635 7.33113 23.3064 9.6589 23.7694C11.9867 24.2324 14.3995 23.9948 16.5922 23.0866C18.7849 22.1783 20.6591 20.6402 21.9776 18.6668C23.2962 16.6935 24 14.3734 24 12C24 8.8174 22.7357 5.76516 20.4853 3.51472C18.2348 1.26428 15.1826 0 12 0V0ZM19.5 6.31364L18.3027 7.45773C18.2516 7.49561 18.2119 7.54679 18.1878 7.6057C18.1638 7.66461 18.1563 7.72898 18.1664 7.79182V16.2095C18.1565 16.2722 18.1639 16.3363 18.188 16.395C18.212 16.4537 18.2517 16.5046 18.3027 16.5423L19.4714 17.6877V17.9373H13.59V17.6864L14.8023 16.5136C14.9195 16.3964 14.9195 16.3595 14.9195 16.1795V9.37909L11.55 17.9155H11.0932L7.17407 9.37909V15.1064C7.15741 15.225 7.16831 15.3459 7.20591 15.4596C7.24351 15.5734 7.30681 15.6769 7.39089 15.7623L8.96589 17.6714V17.9223H4.49998V17.6755L6.07498 15.7664C6.15893 15.6795 6.22072 15.5736 6.25514 15.4578C6.28955 15.342 6.29558 15.2196 6.27271 15.1009V8.48591C6.28122 8.3952 6.26852 8.30376 6.23563 8.2188C6.20273 8.13384 6.15054 8.05769 6.08316 7.99636L4.68952 6.31364V6.06273H9.0368L12.3982 13.4182L15.3532 6.06273H19.5V6.31364Z" fill="white"/>
</svg>
