<svg width="25" height="25" viewBox="0 0 25 25" fill="none" xmlns="http://www.w3.org/2000/svg">
<path d="M3.15034 4.90411C2.87186 4.90411 2.60479 5.01474 2.40788 5.21165C2.21097 5.40856 2.10034 5.67564 2.10034 5.95411C2.10034 6.23259 2.21097 6.49966 2.40788 6.69658C2.60479 6.89349 2.87186 7.00411 3.15034 7.00411H4.43134L4.75159 8.28721C4.75477 8.30199 4.75827 8.31669 4.76209 8.33131L6.18799 14.0328L5.25034 14.9694C3.92734 16.2924 4.86394 18.5541 6.73504 18.5541H15.7503C16.0288 18.5541 16.2959 18.4435 16.4928 18.2466C16.6897 18.0497 16.8003 17.7826 16.8003 17.5041C16.8003 17.2256 16.6897 16.9586 16.4928 16.7617C16.2959 16.5647 16.0288 16.4541 15.7503 16.4541H6.73504L7.78504 15.4041H14.7003C14.8953 15.404 15.0864 15.3496 15.2521 15.2471C15.4179 15.1445 15.5519 14.9978 15.639 14.8235L18.789 8.52346C18.869 8.36342 18.9068 8.1856 18.8987 8.00687C18.8907 7.82814 18.8371 7.65443 18.743 7.50223C18.649 7.35002 18.5176 7.22437 18.3614 7.13719C18.2052 7.05002 18.0293 7.00421 17.8503 7.00411H6.59434L6.26884 5.69896C6.21196 5.4719 6.08084 5.27036 5.89631 5.12635C5.71178 4.98234 5.48442 4.90412 5.25034 4.90411H3.15034ZM16.8003 21.1791C16.8003 21.5968 16.6344 21.9974 16.339 22.2928C16.0437 22.5882 15.6431 22.7541 15.2253 22.7541C14.8076 22.7541 14.407 22.5882 14.1116 22.2928C13.8163 21.9974 13.6503 21.5968 13.6503 21.1791C13.6503 20.7614 13.8163 20.3608 14.1116 20.0654C14.407 19.77 14.8076 19.6041 15.2253 19.6041C15.6431 19.6041 16.0437 19.77 16.339 20.0654C16.6344 20.3608 16.8003 20.7614 16.8003 21.1791ZM6.82534 22.7541C7.24306 22.7541 7.64366 22.5882 7.93903 22.2928C8.2344 21.9974 8.40034 21.5968 8.40034 21.1791C8.40034 20.7614 8.2344 20.3608 7.93903 20.0654C7.64366 19.77 7.24306 19.6041 6.82534 19.6041C6.40763 19.6041 6.00702 19.77 5.71165 20.0654C5.41628 20.3608 5.25034 20.7614 5.25034 21.1791C5.25034 21.5968 5.41628 21.9974 5.71165 22.2928C6.00702 22.5882 6.40763 22.7541 6.82534 22.7541Z" fill="white"/>
<circle cx="17.3652" cy="7.5" r="7" fill="white" stroke="#35924A"/>
<path fill-rule="evenodd" clip-rule="evenodd" d="M17.365 10.9997C17.0888 10.9997 16.865 10.7759 16.865 10.4997V4.49973C16.865 4.22359 17.0888 3.99973 17.365 3.99973V3.99973C17.6411 3.99973 17.865 4.22359 17.865 4.49973V10.4997C17.865 10.7759 17.6411 10.9997 17.365 10.9997V10.9997Z" fill="#35924A"/>
<path fill-rule="evenodd" clip-rule="evenodd" d="M20.865 7.49973C20.865 7.77588 20.6411 7.99973 20.365 7.99973H14.365C14.0888 7.99973 13.865 7.77588 13.865 7.49973V7.49973C13.865 7.22359 14.0888 6.99973 14.365 6.99973H20.365C20.6411 6.99973 20.865 7.22359 20.865 7.49973V7.49973Z" fill="#35924A"/>
</svg>
