<svg xmlns="http://www.w3.org/2000/svg" width="25" height="29" viewBox="0 0 25 29" fill="none">
<path fill-rule="evenodd" clip-rule="evenodd" d="M14.0922 0C17.2072 0 19.6421 0.652914 20.9875 2.17698C22.2122 3.56037 22.5531 5.08443 22.214 7.33176C22.214 7.33176 22.1581 7.67805 22.1221 7.85841C20.9299 13.9312 16.8519 16.0307 11.6412 16.0307H8.98984C8.35316 16.0307 7.81387 16.4906 7.71467 17.1128L7.75796 16.8351L6.35654 25.6548H0.776106C0.299948 25.6548 -0.0643852 25.2328 0.00956359 24.7656L3.77368 1.08218C3.87469 0.459926 4.41577 0 5.05246 0H14.0922ZM11.6411 17.6251C18.1991 17.6251 22.3312 14.4615 23.6263 8.48246C24.6597 9.77386 24.8617 11.5613 24.4433 13.6931C23.4008 19.0048 19.8332 20.8409 15.2754 20.8409H14.5702C14.0147 20.8409 13.5404 21.2431 13.4538 21.7896L13.3961 22.0963L12.5087 27.6713L12.4636 27.9094C12.377 28.4559 11.9027 28.8581 11.3453 28.8581H7.48918L9.26395 17.6251H11.6411Z" fill="white"/>
</svg>