<svg width="20" height="18" viewBox="0 0 20 18" fill="none" xmlns="http://www.w3.org/2000/svg">
<path d="M5.93556 10.1935C6.21301 9.87523 5.987 9.37828 5.56475 9.37828H4.30054C4.29231 9.25319 4.2877 9.12713 4.2877 9.00002C4.2877 5.8502 6.85022 3.28769 10 3.28769C11.5137 3.28769 12.8915 3.87967 13.9147 4.84402L15.6973 2.75854C14.1368 1.331 12.1286 0.549072 10 0.549072C7.74268 0.549072 5.62048 1.42814 4.0243 3.02428C2.42816 4.62046 1.54909 6.74266 1.54909 8.99998C1.54909 9.12655 1.55225 9.25261 1.55776 9.37824H0.492908C0.0706612 9.37824 -0.155391 9.87519 0.1221 10.1935L2.52425 12.9489L3.02881 13.5276L4.84034 11.4497L5.93556 10.1935Z" fill="white"/>
<path d="M19.8778 8.58592L18.0861 6.53077L16.9711 5.25177L15.3791 7.07786L14.0643 8.58592C13.7869 8.90419 14.0129 9.40114 14.4352 9.40114H15.6979C15.4913 12.3645 13.0148 14.7123 9.99986 14.7123C8.68379 14.7123 7.4704 14.2647 6.50348 13.5141L4.7207 15.5997C6.2142 16.7991 8.0568 17.451 9.9999 17.451C12.2572 17.451 14.3794 16.5719 15.9756 14.9757C17.4769 13.4745 18.3435 11.5078 18.4413 9.40118H19.507C19.9292 9.40114 20.1552 8.90419 19.8778 8.58592Z" fill="white"/>
</svg>
