<svg xmlns="http://www.w3.org/2000/svg" width="40.231" height="40.231" viewBox="0 0 40.231 40.231"><g transform="translate(-2 -2)"><path d="M22.115,2,26.23,6.572l5.943-1.829,1.372,5.943,5.943,1.372L37.659,18l4.572,4.115L37.659,26.23l1.829,5.943-5.943,1.372-1.372,5.943L26.23,37.659l-4.115,4.572L18,37.659l-5.943,1.829-1.372-5.943L4.743,32.173,6.572,26.23,2,22.115,6.572,18,4.743,12.058l5.943-1.372,1.372-5.943L18,6.572Z" fill="#39d8cc"/><path d="M32.715,14.6,20.28,27.035l-5.12-5.12-2.56,2.56,7.68,7.68,15-15Z" transform="translate(-0.908 -1.079)" fill="#fff"/></g></svg>