<svg width="96" height="96" viewBox="0 0 96 96" fill="none" xmlns="http://www.w3.org/2000/svg">
<path d="M48.3387 94.2212C74.5834 94.2212 95.8589 73.1291 95.8589 47.1106C95.8589 21.0921 74.5834 0 48.3387 0C22.094 0 0.818359 21.0921 0.818359 47.1106C0.818359 73.1291 22.094 94.2212 48.3387 94.2212Z" fill="#7D0D98"/>
<path d="M91.5386 49.9903C86.5302 48.1074 70.5999 51.3976 69.7906 44.7468C69.3732 41.3188 72.9716 37.2546 71.5729 33.7899C70.0557 30.0297 64.1054 30.0522 60.775 29.4189C57.6024 28.8138 50.7328 26.959 51.153 22.3179C51.4773 18.7434 56.4406 18.901 58.9222 18.507C64.7625 17.581 69.7257 16.4918 75.1768 14.0037C76.8885 13.2269 78.3183 12.1546 79.6888 11.04C76.4998 8.26972 72.956 5.93479 69.1504 4.09659C68.499 5.36313 66.1161 4.46529 64.9204 6.09772C63.2961 8.29024 66.1471 9.83823 62.3626 11.465C60.3435 12.3347 56.6267 12.543 54.6809 11.2258C52.1428 9.50893 52.5828 7.75829 48.9337 7.62038C48.7335 7.62038 45.8316 7.90183 45.7357 7.94124C44.3257 8.68146 44.7826 9.68343 43.8351 10.4996C41.1419 12.816 40.5497 9.84386 37.4336 9.86356C34.0242 9.88326 33.6717 12.7541 32.4055 14.9691C30.7783 17.8174 28.0175 19.371 24.6306 19.433C21.6753 19.4864 19.7831 18.0116 18.2518 15.6052C17.5665 14.5272 17.4058 12.6668 16.8418 11.3553C11.8862 15.7329 7.90118 21.0951 5.14196 27.0986C2.38274 33.1021 0.91009 39.6145 0.818359 46.2188C2.34963 44.927 3.46352 43.4043 3.54813 41.4341L4.50698 38.2425C6.28641 31.5833 13.9428 25.6503 18.5732 32.5543C20.5473 35.5067 21.3482 39.0277 25.519 39.4555C30.4174 39.9424 34.0383 35.5912 37.8397 33.3621C42.5745 30.5898 47.6082 31.0513 51.4914 34.8847C54.1056 37.4685 57.9465 43.4972 55.2646 47.1758C49.9686 54.4429 40.2113 41.6565 33.9001 46.14C25.5726 52.0505 41.5818 56.1879 44.4667 58.6647C53.3837 66.3202 41.1362 73.5142 32.9413 73.6577C30.4455 73.7027 27.4338 72.667 24.9493 73.3228C21.4666 74.2459 17.6173 77.6937 14.3517 79.3965L13.8892 79.6358C19.7024 85.7582 27.043 90.2266 35.1578 92.5826C35.7218 87.3645 42.9636 90.6884 46.0572 90.8939C53.5303 91.3921 48.1299 81.271 54.3763 79.0729C56.4575 78.3383 60.6988 78.6929 61.1049 80.9867C61.5899 83.7337 55.8202 86.1036 58.8489 88.0991C62.4529 90.4802 61.7958 84.9834 63.9615 84.4852C65.3321 84.1728 65.3067 86.1542 66.8549 86.0951C68.3241 86.0388 68.2988 84.8511 69.486 84.2544C72.2665 82.8471 75.707 82.2082 77.8107 84.3614C82.8864 80.4006 87.1033 75.4523 90.2057 69.8165C93.3081 64.1807 95.2314 57.9747 95.8589 51.5749C94.463 51.164 93.0473 50.5589 91.5386 49.9903Z" fill="#EB53C0"/>
<path opacity="0.3" d="M24.5842 41.5005C23.4148 40.8198 22.3609 41.6505 21.1309 41.6188C18.459 41.5438 16.178 40.3755 15.0608 37.8053C13.9959 35.3275 11.4011 34.3034 9.05666 36.2448C6.96265 37.9755 7.46074 41.5063 6.88839 43.9005C6.4839 45.588 4.41187 50.6592 2.37565 49.9986L2.52149 50.1486C1.00533 51.2794 1.63548 53.5121 2.95627 54.4554C4.6733 55.6813 6.33255 54.1179 7.08375 52.4707C8.40454 49.514 8.70721 45.6515 10.8535 43.1361C12.3559 41.3765 15.0113 43.5169 16.9292 43.938C18.9516 44.3823 22.2426 44.8034 24.0532 43.8659C25.2694 43.24 26.0894 42.3746 24.5842 41.5005Z" fill="#EB53C0"/>
<path opacity="0.3" d="M77.8311 33.1518C77.6803 30.2089 76.5299 28.4695 74.2569 26.6993C73.2324 25.9288 72.1044 25.3066 70.9061 24.851C69.7389 24.3791 68.2814 24.4042 67.2175 23.8598C65.8716 23.1673 65.8492 22.0058 67.2175 21.3162C68.3344 20.7578 69.8394 21.1515 71.0234 21.2045C72.0175 21.2492 76.1446 20.9253 74.2681 19.3227C73.3327 18.5241 70.0796 18.9178 68.9906 19.1356C65.7766 19.7722 62.0098 19.4148 58.8349 20.3446C58.8516 20.554 58.7427 20.5177 58.6617 20.6238L56.8914 21.2129C55.5511 21.4921 55.4059 23.1673 56.1934 24.1334C57.1037 25.2502 58.9606 25.2698 60.2506 25.3759C63.4199 25.6411 66.1871 25.5964 69.1693 26.8557C71.6824 27.9194 74.3072 30.1419 74.754 33.015C74.9634 34.3747 73.2517 39.7913 74.458 40.104C76.8538 40.7155 77.9009 34.5311 77.8311 33.1518Z" fill="#EB53C0"/>
<path opacity="0.3" d="M37.5285 7.25485C37.096 6.43576 34.8498 6.55316 34.0578 6.56954C32.063 6.61323 30.7223 7.6016 29.0626 8.58997C27.676 9.40906 25.0351 11.4404 23.3673 11.1646C23.1808 10.4411 25.6676 7.42959 23.2051 8.58997L21.2049 9.88687C18.4884 10.2937 19.8372 14.2717 21.6293 15.0744C24.7729 16.4969 26.8218 14.5966 28.7382 12.4479C29.7114 11.3179 30.8274 10.3219 32.0576 9.48551C33.4766 8.55721 34.1281 8.78109 35.6283 8.87665C36.404 8.93126 38.2394 8.61454 37.5285 7.25485Z" fill="#EB53C0"/>
<path opacity="0.3" d="M89.2181 41.4891C88.7543 38.6684 85.3288 36.3794 83.7613 34.2705C82.2392 32.2236 79.6027 31.9992 79.9785 35.3426C80.2158 35.4785 80.1438 35.2245 80.2451 35.2068L79.9785 35.9895C79.8532 37.5667 78.9816 39.1705 78.0032 40.2367C77.2035 41.0992 75.5587 41.4979 74.9349 42.4224C74.0659 43.7102 74.815 45.249 76.0306 45.7068C77.862 46.395 79.3974 44.8591 81.0635 44.4161C83.46 43.7693 90.1485 47.1423 89.2181 41.4891Z" fill="#EB53C0"/>
<path opacity="0.2" d="M58.5059 35.5346C54.3612 29.8675 45.9963 26.8294 39.0279 26.9151C35.9557 26.9538 32.0456 28.0955 29.3979 29.6519C26.915 31.106 25.4152 32.3776 23.0188 29.9891C19.3433 26.3235 14.4864 22.6329 9.1742 25.7512C7.3141 26.8432 5.8869 28.5654 4.49881 30.1743C3.58273 31.2331 3.32574 31.4874 3.27826 32.9084C3.25313 33.6548 3.74753 35.9907 4.31171 34.2243V33.4944C7.23313 29.3035 13.9976 24.7754 18.6674 29.5109C19.5472 30.401 19.7399 31.6284 20.427 32.6098C21.2118 33.7322 22.2927 34.4261 23.4992 34.9872C27.0909 36.6597 30.4061 35.5733 33.389 33.2373C38.542 29.204 46.9041 29.9919 51.8224 34.0667C56.2744 37.7572 62.6507 48.5026 55.5035 52.5111C52.4899 54.2029 48.4793 53.4703 45.326 52.5111C42.5331 51.6541 39.5251 48.6408 36.4724 50.1032C35.6485 50.5041 34.4084 51.4855 35.3245 52.4364C36.3998 53.5422 37.2796 51.8421 38.1007 51.6071C40.4105 50.9187 44.3346 53.6777 46.5103 54.3439C48.9234 55.082 51.7805 55.8395 54.3305 55.6957C56.5649 55.5685 59.7879 53.1414 60.5672 51.0542C62.2988 46.4376 61.4106 39.5016 58.5059 35.5346Z" fill="white"/>
<path opacity="0.2" d="M49.7007 58.6788C47.5334 55.6981 43.6113 54.4085 40.3757 53.4035L39.7889 53.2555C37.9953 54.0868 41.0399 54.7501 41.5437 54.901C43.0854 55.3593 44.3116 56.3643 45.4769 57.4632C47.8821 59.7407 48.743 62.5676 48.8565 65.8615C49.0004 70.0692 47.2677 73.9182 43.3207 75.4925C40.5141 76.6171 36.6778 77.027 33.6331 77.027C31.0424 77.027 28.2247 76.7423 25.7364 77.3345C23.8459 77.79 20.4912 78.4106 19.7688 80.634C19.4062 81.7471 20.0096 82.6411 21.2025 82.7436C22.4813 82.8517 22.8633 81.7215 23.8431 81.1265C26.0574 79.7771 29.7525 79.9707 32.2935 79.5835C38.3385 78.664 46.2824 79.5038 50.3041 73.568C53.5342 68.8166 52.9031 63.0744 49.7007 58.6788Z" fill="white"/>
<path opacity="0.2" d="M79.3982 79.1486C78.6105 77.0058 73.3994 77.146 71.6426 77.2204C69.4154 77.3205 66.2248 78.5306 64.4566 76.9973C61.9064 74.7859 61.0733 73.015 57.4264 72.9206C54.6977 72.8491 50.5578 75.2093 48.7357 77.1861C46.4859 79.6349 46.0014 82.6216 42.482 83.8031C38.8947 85.0103 34.0096 82.8247 30.7764 85.0733C28.0958 86.9357 30.1304 92.8346 32.2669 90.3371L32.5673 90.7892C32.1394 86.5723 37.6536 85.4681 40.8385 86.1032C42.414 86.4207 43.981 87.5336 45.5962 87.4649C48.3618 87.3533 48.1662 85.0247 48.7726 82.9677C50.1044 78.462 53.8731 75.7671 58.3218 75.8158C59.699 75.8329 62.048 75.8158 62.3711 77.6295C62.6289 79.0885 61.0478 79.6149 62.3938 81.0625C63.292 82.0351 64.6804 82.1181 65.4767 81.1082C65.4767 81.2913 65.5192 81.4944 65.5248 81.6804C66.8453 81.4944 67.8597 80.1727 69.2397 79.858C70.7387 79.5148 72.4219 79.8437 73.8812 80.2271C74.9466 80.5132 76.5618 81.6575 77.6329 81.5545C78.5935 81.483 79.7892 80.2128 79.3982 79.1486Z" fill="white"/>
<path opacity="0.2" d="M85.3188 52.4567C80.2595 52.0589 72.9557 54.0071 69.1676 49.9773C66.7614 47.4161 67.9135 41.4682 68.0866 38.2041C68.183 36.3813 68.1944 33.7602 66.4294 32.6213C65.9102 32.2861 64.3353 31.7821 63.7338 32.0109C62.5591 32.4578 63.1862 33.2752 64.0374 33.3106L65.3881 33.7411C67.5616 35.8391 66.56 38.6673 65.7257 41.2284C64.7014 44.3618 64.1027 48.2417 65.6491 51.3369C67.2722 54.5874 72.1754 55.4075 75.5804 55.4811C78.5626 55.5438 81.4256 54.2087 84.4192 54.9362C86.6892 55.4811 89.0557 57.7589 91.1668 55.6609C93.7944 53.0453 86.9986 52.5902 85.3188 52.4567Z" fill="white"/>
<path opacity="0.2" d="M75.2376 9.40957C75.007 8.86098 74.5755 8.42484 74.0343 8.19315L73.8843 8.79992C73.2048 11.7533 67.7292 12.8604 65.3226 13.4011C60.8125 14.4162 56.2938 14.7527 51.7327 15.6384C48.7231 16.2135 43.992 18.5141 44.2525 22.3244C44.3346 23.5351 45.4331 24.7113 46.6789 24.5675C48.3975 24.3748 47.5877 23.2073 47.8397 21.8672C48.3409 19.1985 51.9167 18.3876 54.1194 18.0597C57.0809 17.6226 59.9177 17.522 62.8028 16.435C65.416 15.4515 68.0434 14.9051 70.5773 13.9618C72.3044 13.3234 76.1521 12.1329 75.2376 9.40957Z" fill="white"/>
<g opacity="0.2">
<path opacity="0.2" d="M53.498 71.147C53.5017 71.0293 53.5139 70.912 53.5345 70.7961L53.498 70.7484C53.498 70.8803 53.498 71.0151 53.498 71.147Z" fill="white"/>
<path opacity="0.2" d="M82.5441 73.3032C80.3206 71.2762 74.9865 71.0263 72.1818 71.3071C69.7281 71.5541 67.2857 72.6209 65.0846 71.046C62.3389 69.0808 60.5927 65.9926 56.8784 67.4468C55.4747 68.0083 53.7902 69.2183 53.5375 70.7961L53.9447 71.3408C53.7865 71.384 53.6458 71.4758 53.5425 71.6032C53.4393 71.7307 53.3786 71.8873 53.3691 72.051C54.4753 72.6125 55.952 71.1723 57.0609 70.8944C58.3936 70.5811 59.7848 70.6198 61.0981 71.0067C62.1508 71.3464 63.6051 72.2083 64.3379 73.087C65.1801 74.1117 65.0425 75.3133 66.5557 75.493C68.9842 75.7737 71.0757 73.7467 73.6754 74.1566C76.2751 74.5665 77.5469 76.5851 79.5991 77.9074C82.6227 79.8557 84.9725 75.5098 82.5441 73.3032Z" fill="white"/>
</g>
<path opacity="0.2" d="M48.8148 10.9132C47.1123 10.0354 47.1511 11.5635 46.4357 12.5389C44.9855 14.4626 42.0381 14.4816 39.9529 15.2917C37.2606 16.3376 35.5608 18.2071 34.2382 20.5535C33.0597 22.6425 30.5836 23.8644 28.2656 24.3061C26.5076 24.6421 25.0879 23.8834 23.7598 25.0512L24.1618 25.7069C22.6257 28.4163 30.7334 26.2081 31.4876 25.8478C34.5931 24.3738 35.8769 21.7077 37.9343 19.2638C39.5703 17.3211 41.8523 16.5841 44.2341 15.9745C45.8257 15.5681 49.3582 15.224 49.9156 13.3626C50.0307 12.8929 49.9854 12.3993 49.7866 11.957C49.5879 11.5148 49.2466 11.1483 48.8148 10.9132Z" fill="white"/>
<path opacity="0.5" d="M47.9313 95.0405C74.4011 95.0405 95.8598 73.7893 95.8598 47.5751C95.8598 25.5046 80.6495 6.95217 60.0428 1.63864C59.7616 3.40888 60.0259 5.52139 61.0579 7.97055C64.9076 17.0855 72.9501 24.4329 76.9995 33.4356C85.4919 52.3135 83.2844 74.4429 60.2509 80.441C50.9177 82.8733 39.4418 81.3612 31.8043 75.6717C22.997 69.1266 24.476 58.9456 26.138 49.3734C27.7943 39.8545 35.5471 24.7584 30.5107 15.189C29.175 12.65 24.0767 7.11769 18.3148 10.2458C12.6147 14.6623 8.00145 20.3199 4.8273 26.7865C1.65315 33.2532 0.00204258 40.3579 0 47.5583C0 73.7893 21.4587 95.0405 47.9313 95.0405Z" fill="#FF71F8"/>
<path opacity="0.2" d="M16.7812 71.0072C13.3617 65.4832 12.3185 58.9839 11.7607 52.5799C11.1778 45.9404 11.9504 39.0852 13.5597 32.6812C14.5722 28.637 20.6832 19.8871 16.1397 18.9118C11.7663 17.9729 5.33726 27.0395 4.33038 32.4205C2.40865 42.7146 3.17013 52.3389 6.18241 62.3863C7.339 66.438 8.98377 70.3327 11.0802 73.9836C12.101 75.7549 12.96 77.2767 14.8288 78.2857C15.9444 78.8799 18.3514 80.2728 19.4671 80.2924C24.4597 80.3624 17.7936 72.644 16.7812 71.0072Z" fill="white"/>
</svg>
