<svg width="95" height="96" viewBox="0 0 95 96" fill="none" xmlns="http://www.w3.org/2000/svg">
<path d="M47.1106 94.2212C73.1291 94.2212 94.2212 73.1291 94.2212 47.1106C94.2212 21.0921 73.1291 0 47.1106 0C21.0921 0 0 21.0921 0 47.1106C0 73.1291 21.0921 94.2212 47.1106 94.2212Z" fill="#5DA79A"/>
<path opacity="0.4" d="M58.2269 93.7125C69.353 90.9775 79.1119 84.2572 85.683 74.8051C92.2542 65.3529 95.1889 53.8146 93.9396 42.3425C92.6903 30.8704 87.3424 20.2481 78.8935 12.457C70.4446 4.66594 59.4717 0.238286 48.0218 0C48.153 1.78902 48.9094 3.78057 50.4698 5.92402C56.2785 13.8987 65.6825 19.1785 71.6559 26.9956C84.1805 43.3893 87.2315 65.4398 66.6064 76.6381C58.2324 81.1781 46.9276 82.3764 38.2885 78.6268C28.3374 74.3062 27.3772 64.0559 26.7352 54.3541C26.096 44.703 29.9899 28.1939 22.9418 20.0674C21.0716 17.9071 14.9056 13.713 10.124 18.0983C4.05322 25.8586 0.533989 35.3329 0.0560624 45.2029C-0.421864 55.0728 2.16531 64.8475 7.45752 73.1664C12.7497 81.4854 20.4837 87.935 29.5832 91.6175C38.6827 95.3 48.6951 96.0323 58.2269 93.7125Z" fill="#97FC68"/>
<path d="M8.98399 40.3538L7.66586 40.2302C2.27723 38.9352 -0.546981 53.1278 7.3453 50.4636C9.92079 49.592 12.43 48.2105 13.0075 44.7952C13.5989 41.3088 11.4959 40.6536 8.98399 40.3538Z" fill="#97FC68"/>
<path d="M17.6192 30.2157C15.4719 25.7956 6.89349 32.0362 8.36128 34.6385C8.61407 37.6016 20.3265 35.792 17.6192 30.2157Z" fill="#97FC68"/>
<path d="M81.5247 44.3151C79.3796 39.4039 70.7995 46.3379 72.2676 49.2293C72.5204 52.5216 84.2352 50.511 81.5247 44.3151Z" fill="#97FC68"/>
<path d="M15.7963 37.6945L13.9359 38.1707C13.6939 41.5996 18.8639 44.0998 21.2787 41.5758C24.701 37.9981 16.6434 37.632 15.7963 37.6945Z" fill="#97FC68"/>
<path d="M47.7493 87.6728L45.8891 88.146C45.647 91.5779 50.8168 94.0782 53.2286 91.5541C56.6592 87.9764 48.5964 87.6103 47.7493 87.6728Z" fill="#97FC68"/>
<path d="M28.899 28.5043C25.3127 26.0625 21.5742 31.1351 19.6641 33.627L20.8069 34.0168C20.63 34.1113 20.4287 34.0906 20.2463 34.1969C20.9347 39.3846 34.681 32.4401 28.899 28.5043Z" fill="#97FC68"/>
<path d="M20.872 24.4821L20.4824 24.7609C21.2767 27.5045 26.5923 26.0128 26.1966 23.2692C25.6832 19.7143 19.6338 21.5043 20.872 24.4821Z" fill="#97FC68"/>
<path d="M83.9068 43.3054L83.5703 43.6086C84.2511 46.3458 88.8096 44.8575 88.4679 42.1204C88.0279 38.5598 82.8429 40.3456 83.9068 43.3054Z" fill="#97FC68"/>
<path d="M39.9956 18.9787C37.4274 18.3372 27.0346 19.9965 28.898 23.8376L30.1479 24.3925C31.8172 25.9679 36.5742 25.4292 38.5745 24.5657C40.9202 23.5534 43.6682 19.8964 39.9956 18.9787Z" fill="#97FC68"/>
<path d="M49.3289 23.1001C47.7562 21.0504 41.5948 22.3485 42.7459 25.8003L42.9373 25.7539C44.3754 26.4235 52.2622 26.9263 49.3289 23.1001Z" fill="#97FC68"/>
<path d="M19.5773 77.1215C20.3803 74.6727 15.3949 70.1594 13.1094 73.0163L13.2706 73.1515C13.5843 74.7337 18.0805 81.6931 19.5773 77.1215Z" fill="#97FC68"/>
<path d="M62.3661 56.6922C60.6211 54.6421 53.7735 55.9405 55.0527 59.3929L55.2626 59.3437C56.8609 60.0161 65.6289 60.5191 62.3661 56.6922Z" fill="#97FC68"/>
<path d="M57.6778 12.359C56.3178 10.7681 53.6207 11.8397 52.2292 11.6416L47.3949 13.7999C44.7891 14.2351 44.212 16.9157 46.4549 18.2395C48.5292 19.4642 52.4549 18.6087 54.4864 17.6151C56.1493 16.8076 59.4121 14.3942 57.6778 12.359Z" fill="#97FC68"/>
<path d="M70.7247 19.5042C69.0676 18.8012 67.9204 19.0083 67.3255 17.2845C66.6485 15.2776 67.6258 14.4492 64.6062 14.843C62.3061 15.1347 57.0856 17.0861 56.5332 19.6296V19.8017L57.1422 21.4644C58.7257 25.548 65.7053 26.9131 69.416 25.8951C72.8067 24.9588 74.6111 21.1493 70.7247 19.5042Z" fill="#97FC68"/>
<path d="M70.6435 9.83179L69.4768 10.1445C67.0959 11.8541 71.8207 16.0098 73.9106 14.3732C76.1011 12.6578 72.1487 10.0539 70.6435 9.83179Z" fill="#97FC68"/>
<path d="M81.0081 26.5916L78.0372 26.2181C72.4936 27.1069 73.9933 36.1153 79.591 34.1249C81.2443 33.5387 83.0059 30.9431 82.7213 29.1572C82.5306 28.0857 80.9398 26.8043 81.0081 26.5916Z" fill="#97FC68"/>
<path d="M83.5504 22.7789L82.5611 22.1215C80.7804 22.6841 83.1899 27.0285 84.6969 27.0373C87.4641 27.0521 85.3365 22.9714 83.5504 22.7789Z" fill="#97FC68"/>
<path d="M87.6506 48.997L86.6567 48.3396C84.8773 48.9022 87.2823 53.2465 88.7909 53.2554C91.5588 53.2702 89.4354 49.1924 87.6506 48.997Z" fill="#97FC68"/>
<path d="M80.2742 53.9158L79.2842 53.2555C77.5022 53.8211 79.9135 58.1624 81.4216 58.1712C84.1855 58.1949 82.059 54.1083 80.2742 53.9158Z" fill="#97FC68"/>
<path d="M30.6795 77.3967C27.1091 76.8522 20.9003 74.0305 20.8654 79.5749C21.1876 79.47 20.8654 79.3594 20.9467 79.1323L22.0497 80.9027C16.8248 84.4174 26.1425 87.6002 28.485 88.6252C31.0133 89.7346 34.2207 90.8353 36.9319 89.5366C39.8026 88.1622 42.923 84.1583 42.5776 80.9085C41.9245 74.776 34.6184 77.9966 30.6795 77.3967Z" fill="#97FC68"/>
<path d="M47.8451 74.9148C46.1442 74.9687 43.2754 73.6929 42.6035 76.2303L43.3661 78.47C44.1513 81.152 42.6092 84.2365 46.4844 84.3868C49.6538 84.5087 54.8443 80.3978 54.8925 77.1602C54.9606 73.3272 50.1669 74.8383 47.8451 74.9148Z" fill="#97FC68"/>
<path d="M42.1349 69.1096C38.9232 64.6994 28.8916 68.847 32.8737 71.7777L33.4401 73.1894C35.2923 74.1353 37.5496 74.988 39.6709 74.3188C41.6987 73.6779 43.483 70.9646 42.1349 69.1096Z" fill="#97FC68"/>
<path d="M53.6171 64.9366C51.7405 61.2229 44.4784 63.6755 45.1001 67.2558L45.7616 69.1228C45.3187 71.7841 56.4334 70.5201 53.6171 64.9366Z" fill="#97FC68"/>
<path d="M56.2749 69.0933C56.3565 68.9375 56.4578 68.7986 56.5749 68.6818L55.7285 70.7262C55.3241 74.3046 62.9092 73.396 62.2235 68.7838C61.6423 64.8959 57.282 66.2127 56.2749 69.0933Z" fill="#97FC68"/>
<path d="M72.8618 54.8941L71.0588 55.6684C69.2616 55.85 63.9679 58.6018 63.9074 60.5313C63.8268 63.2125 67.9771 62.1027 69.5899 61.6664C71.7184 61.0938 75.2782 59.4291 76.0156 57.3659C76.9977 54.6116 73.6884 55.4944 72.8618 54.8941Z" fill="#97FC68"/>
<path d="M77.4812 60.9581C74.3006 61.5361 77.6909 64.1029 80.4134 62.6456C83.9004 60.7801 80.6456 59.2515 77.9618 60.0076L77.4812 60.9581Z" fill="#97FC68"/>
<path opacity="0.3" d="M52.4001 15.6545C45.1754 20.2547 40.246 27.2162 31.9185 30.1706C26.6281 32.0475 21.4244 33.3172 16.4391 36.0406C9.77701 39.6773 -5.05304 48.9834 3.3081 57.7437C12.2655 67.1418 21.1193 60.2499 27.521 52.013C33.8023 43.9377 45.2342 32.1588 56.6324 32.9441C63.5408 33.4203 69.839 36.8008 76.8677 34.7374C79.219 34.0496 81.951 32.7882 83.4653 30.7721C84.8425 28.9371 84.3807 27.7787 83.972 25.6763C83.1546 21.4354 74.6255 1.50043 52.4001 15.6545Z" fill="#9CE8E6"/>
</svg>
