<svg width="177" height="96" viewBox="0 0 177 96" fill="none" xmlns="http://www.w3.org/2000/svg">
<path d="M81.5227 94.2212C107.541 94.2212 128.633 73.1291 128.633 47.1106C128.633 21.0921 107.541 0 81.5227 0C55.5043 0 34.4121 21.0921 34.4121 47.1106C34.4121 73.1291 55.5043 94.2212 81.5227 94.2212Z" fill="#204E84"/>
<path d="M48.8451 73.9374C55.9272 70.8844 63.791 70.0492 71.369 70.0771C77.5322 70.0967 79.1459 66.8732 82.9083 62.5353C87.2926 57.4906 93.834 56.4487 100.294 56.4487C104.177 56.4487 106.525 56.5856 109.671 53.985C113.105 51.1471 114.097 47.2002 117.042 44.1695C119.739 41.3902 123.849 39.8287 127.813 38.9516C127.098 35.1204 125.905 31.3933 124.264 27.8567C119.524 30.1723 116.305 34.4908 112.68 38.3986C107.637 43.8399 104.463 47.2197 96.4758 47.5829C89.5926 47.8957 82.4488 47.8119 78.0561 53.9152C74.2209 59.2476 73.3916 61.8928 65.9873 61.5157C59.8241 61.2001 55.3949 61.2364 49.862 64.3649C46.3686 66.3425 43.4999 69.2866 40.1465 70.9766C41.3548 73.0923 42.7261 75.1114 44.2479 77.0156C45.5972 75.7409 47.1511 74.7004 48.8451 73.9374Z" fill="#0B8980"/>
<path d="M118.518 59.0214C114.531 60.0793 110.11 62.4723 107.196 65.4281C104.666 67.9937 103.609 70.4093 99.9822 71.8462C92.5919 74.7766 84.0439 70.6837 77.3107 75.6082C72.163 79.3787 64.8649 86.0938 57.3516 88.8771C59.8952 90.362 62.5707 91.6026 65.343 92.5826L65.6618 92.3704C71.6624 88.4783 77.0563 89.2279 83.7308 88.4585C93.6572 87.3129 99.4733 74.2618 109.081 71.3682C112.819 70.2367 116.927 71.0372 120.825 70.7346C121.272 70.7006 121.767 70.6497 122.296 70.5818C124.429 66.689 126.011 62.5116 126.993 58.1728C123.512 58.1417 120.042 58.6169 118.518 59.0214Z" fill="#0B8980"/>
<path d="M59.3536 48.5313C64.9198 45.6734 65.7266 40.2519 69.5527 35.9339C74.6634 30.1644 79.0489 32.8666 85.4838 33.9362C93.8049 35.3199 98.2325 28.3619 101.668 21.8114C104.499 16.4068 108.077 16.4804 113.849 17.3463C115.215 17.5826 116.596 17.7254 117.981 17.7735C115.633 14.8636 112.955 12.2389 110.003 9.95252C109.362 10.1376 108.701 10.2449 108.035 10.2723C102.413 10.442 97.5691 7.88409 93.7824 13.4612C89.9957 19.0384 87.997 24.1317 80.0778 23.7412C73.2579 23.4073 64.7259 23.113 60.3825 29.839C56.2782 36.1943 55.4123 42.3769 46.2928 42.9966C41.0162 43.356 37.3897 41.4517 33.6424 45.6904C33.6115 46.4148 33.5918 47.1392 33.5918 47.8692C33.5918 49.4113 33.6677 50.9336 33.8083 52.4362C37.0468 51.1176 40.6901 50.5177 43.7346 50.3677C49.2193 50.0961 54.4228 51.0638 59.3536 48.5313Z" fill="#0B8980"/>
<path opacity="0.3" d="M81.1639 95.0405C92.7146 95.0104 103.86 90.7899 112.522 83.1659C121.185 75.5419 126.773 65.0348 128.244 53.6035C129.716 42.1723 126.971 30.5971 120.521 21.0361C114.071 11.475 104.357 4.58079 93.1889 1.63864C92.9072 3.40608 93.1691 5.51915 94.197 7.9694C98.0157 17.0848 105.999 24.4356 110.018 33.4358C118.447 52.3156 116.256 74.4606 93.4028 80.4458C84.1405 82.8792 72.7549 81.3674 65.1654 75.683C56.4353 69.1358 57.8913 58.9555 59.5331 49.3821C61.1749 39.862 68.8714 24.7643 63.8728 15.1937C62.5463 12.6648 57.4857 7.12361 51.7633 10.2511C43.9864 16.3517 38.3088 24.7195 35.5206 34.19C32.7324 43.6606 32.9722 53.7628 36.2067 63.091C39.4413 72.4192 45.5096 80.5093 53.5673 86.2357C61.625 91.962 71.2713 95.0397 81.1639 95.0405Z" fill="#9CE8E6"/>
<path opacity="0.1" d="M175.576 33.506C174.245 30.4881 169.448 30.0655 166.675 29.4343C162.752 28.5382 162.416 28.2508 159.861 25.4583C155.411 20.592 149.382 20.8315 143.577 22.0319C138.917 22.9928 133.574 22.8519 129.926 25.8556C128.004 27.4393 126.805 28.9355 128.879 31.0376C131.078 33.2721 134.395 31.8688 137.312 31.9168C139.164 31.9477 144.207 32.5339 142.876 35.6785C141.994 37.7609 136.432 36.7183 138.091 40.3082C139.301 42.9287 142.574 41.6523 142.941 45.662C143.221 48.5165 141.96 50.2551 139.78 51.8105C134.928 55.2764 128.105 53.0081 122.544 53.0081C113.236 53.0081 107.355 55.0256 98.7286 58.5C92.5815 60.9768 87.146 60.2104 80.7132 59.7088C73.0783 59.1142 65.1829 60.571 58.1476 63.4706C53.4854 65.3923 45.2426 69.0555 43.7773 62.5914C43.3766 60.8387 44.6178 60.4527 42.8919 58.7423C41.8777 57.7335 40.6841 57.7476 39.4065 57.4884C36.7811 56.9875 34.0836 57.0086 31.4662 57.5504C28.6476 58.1139 15.8435 60.7091 20.5813 53.3236C21.3714 52.0951 30.9871 48.4601 34.31 44.5884L34.6238 40.4265C35.1366 34.5739 17.3425 41.0155 15.2047 43.1035C11.2346 46.9808 11.5287 52.2585 7.96207 56.1358C5.16029 59.1819 -0.930758 64.1835 1.29946 68.985C4.12926 75.0771 13.1818 71.2393 17.8075 71.2224C25.9495 71.197 22.1727 77.971 26.0896 82.1526C32.388 88.8872 41.4994 85.3227 48.9185 82.7866C54.368 80.9241 59.6438 78.405 65.2193 76.9397C71.7839 75.218 78.5474 74.4037 85.1512 72.8764C98.6445 69.7543 112.46 69.5091 126.166 70.2418C135.933 70.7631 159.97 72.2819 161.04 57.7899C161.256 54.8734 158.202 52.2557 158.799 49.8042C159.46 47.0653 164.234 46.7046 166.453 45.9804C171.177 44.4475 178.218 39.5023 175.576 33.506Z" fill="white"/>
<path opacity="0.2" d="M166.415 45.8683C171.152 44.3311 178.236 39.3692 175.571 33.359C174.234 30.3328 169.416 29.9089 166.629 29.276C162.689 28.3774 162.351 28.0892 159.785 25.289C158.95 24.3691 157.985 23.5779 156.92 22.9408C156.638 23.0171 156.374 23.0991 156.101 23.1895C146.042 26.4842 160.604 32.8222 161.69 35.9389C163.579 41.3359 156.202 42.9154 152.403 43.9864C152.49 49.0132 153.5 57.5072 147.967 59.553C144.942 60.6832 142.167 59.4032 139.274 58.9878C134.945 58.3492 130.583 59.3382 126.263 60.2057C114.358 62.5962 102.603 64.5007 90.7006 66.6199C84.9846 67.64 79.5501 67.0805 73.8622 67.5807C68.4277 68.061 63.5279 69.8412 58.2369 71.0986C52.1156 72.5482 40.6217 75.8034 34.9649 71.7457C32.6036 70.0503 31.9141 67.527 29.2039 66.1311C26.3023 64.6392 23.1305 64.6392 20.0319 64.1531C16.2775 63.5569 14.375 62.8872 12.2867 59.9881C10.7445 57.8463 9.80165 56.6538 7.26027 55.9587L7.17583 56.0548C4.36146 59.1093 -1.75698 64.1249 0.48326 68.9398C3.32577 75.0489 12.419 71.2004 17.0655 71.1834C25.2441 71.158 21.4503 77.9509 25.3848 82.1442C31.7396 88.8947 40.8919 85.3202 48.3444 82.7771C53.8183 80.9093 59.1178 78.3832 64.7184 76.9138C71.3124 75.1874 78.1063 74.3707 84.7397 72.8392C98.2937 69.7084 112.171 69.4626 125.939 70.1972C135.75 70.72 159.895 72.243 160.97 57.7106C161.186 54.7861 158.119 52.161 158.718 49.7027C159.391 46.9562 164.186 46.6086 166.415 45.8683Z" fill="white"/>
<path d="M13.3567 65.4621L13.7415 65.2699C13.861 65.21 13.928 65.1288 13.9277 65.0442C13.9274 64.9596 13.8598 64.8786 13.7398 64.8189C13.6199 64.7592 13.4573 64.7257 13.288 64.7259C13.1187 64.726 12.9564 64.7598 12.8369 64.8197L12.4555 65.0119C12.345 65.0725 12.2854 65.152 12.2892 65.2339C12.293 65.3159 12.3599 65.3939 12.4759 65.4519C12.5919 65.5098 12.7482 65.5432 12.9123 65.5451C13.0763 65.547 13.2355 65.5173 13.3567 65.4621Z" fill="white"/>
<path d="M17.8438 62.8435L17.4686 62.4712C17.4119 62.4089 17.3432 62.3589 17.2667 62.324C17.1901 62.2891 17.1073 62.2701 17.0232 62.2681C16.9391 62.2662 16.8555 62.2813 16.7774 62.3126C16.6993 62.3439 16.6284 62.3908 16.5689 62.4503C16.5095 62.5099 16.4627 62.5809 16.4314 62.659C16.4001 62.7372 16.3849 62.8209 16.3869 62.9051C16.3888 62.9893 16.4078 63.0722 16.4427 63.1488C16.4776 63.2254 16.5276 63.2942 16.5897 63.3509L16.9617 63.7232C17.0782 63.8403 17.2364 63.9063 17.4016 63.9066C17.5667 63.9069 17.7252 63.8415 17.8422 63.7249C17.9591 63.6082 18.025 63.4498 18.0253 63.2845C18.0257 63.1192 17.9604 62.9606 17.8438 62.8435Z" fill="white"/>
<path d="M12.9815 59.81H12.8812C12.7242 59.81 12.5736 59.8532 12.4625 59.93C12.3515 60.0068 12.2891 60.111 12.2891 60.2197C12.2891 60.3283 12.3515 60.4325 12.4625 60.5093C12.5736 60.5861 12.7242 60.6293 12.8812 60.6293H13.3355C13.4926 60.6293 13.6432 60.5861 13.7542 60.5093C13.8653 60.4325 13.9277 60.3283 13.9277 60.2197C13.9277 60.111 13.8653 60.0068 13.7542 59.93C13.6432 59.8532 13.4926 59.81 13.3355 59.81H12.8812C12.7242 59.81 12.5736 59.8532 12.4625 59.93C12.3515 60.0068 12.2891 60.111 12.2891 60.2197C12.2891 60.3283 12.3515 60.4325 12.4625 60.5093C12.5736 60.5861 12.7242 60.6293 12.8812 60.6293H12.9815C13.1385 60.6293 13.2891 60.5861 13.4002 60.5093C13.5113 60.4325 13.5736 60.3283 13.5736 60.2197C13.5736 60.111 13.5113 60.0068 13.4002 59.93C13.2891 59.8532 13.1385 59.81 12.9815 59.81Z" fill="white"/>
<path d="M8.19239 65.5452C8.40969 65.5452 8.61809 65.502 8.77174 65.4252C8.9254 65.3484 9.01168 65.2442 9.01168 65.1355C9.01168 65.0269 8.9254 64.9227 8.77174 64.8459C8.61809 64.7691 8.40969 64.7259 8.19239 64.7259C7.97509 64.7259 7.76664 64.7691 7.61298 64.8459C7.45933 64.9227 7.37305 65.0269 7.37305 65.1355C7.37305 65.2442 7.45933 65.3484 7.61298 65.4252C7.76664 65.502 7.97509 65.5452 8.19239 65.5452Z" fill="white"/>
<path d="M8.36318 69.0117H8.19199C8.13707 69.0117 8.05308 68.9968 8.27599 69.0117H8.24688C8.33233 69.0241 8.4102 69.0475 8.47304 69.0798L8.5538 69.1329C8.60226 69.1977 8.61842 69.2176 8.59903 69.1877C8.57965 69.1578 8.61842 69.284 8.59903 69.2342C8.57965 69.1844 8.59903 69.1694 8.59903 69.1362C8.59903 69.053 8.5347 68.9732 8.4202 68.9144C8.3057 68.8555 8.1504 68.8224 7.98847 68.8224C7.82654 68.8224 7.67124 68.8555 7.55674 68.9144C7.44224 68.9732 7.37791 69.053 7.37791 69.1362C7.3516 69.2754 7.4328 69.4144 7.60402 69.5231C7.707 69.5681 7.82717 69.6015 7.9568 69.6213C8.08644 69.641 8.22268 69.6466 8.35675 69.6376C8.44045 69.6408 8.52448 69.635 8.60365 69.6207C8.68282 69.6064 8.75541 69.5838 8.81687 69.5545C8.87833 69.5251 8.92733 69.4895 8.96085 69.45C8.99436 69.4105 9.01168 69.3678 9.01168 69.3247C9.01168 69.2815 8.99436 69.2389 8.96085 69.1993C8.92733 69.1598 8.87833 69.1242 8.81687 69.0949C8.75541 69.0655 8.68282 69.043 8.60365 69.0287C8.52448 69.0143 8.44045 69.0086 8.35675 69.0117H8.36318Z" fill="white"/>
<path d="M11.2827 68.3226C11.2827 68.3576 11.2827 68.3492 11.2827 68.2943L11.315 68.2494C11.2881 68.2777 11.315 68.2694 11.3527 68.2228C11.3903 68.1762 11.4388 68.1829 11.3957 68.1995C11.5087 68.1579 11.471 68.1828 11.4172 68.1912H11.3607C11.5168 68.1745 11.4119 68.1912 11.3607 68.1912C11.3096 68.1912 11.2262 68.1912 11.1589 68.1912C11.0241 68.1912 10.8947 68.2243 10.7993 68.2833C10.704 68.3423 10.6504 68.4223 10.6504 68.5057C10.6504 68.5891 10.704 68.6691 10.7993 68.728C10.8947 68.787 11.0241 68.8201 11.1589 68.8201C11.3589 68.8286 11.5596 68.8139 11.7509 68.7769C11.9068 68.7446 12.0426 68.683 12.139 68.6006C12.2355 68.5183 12.288 68.4193 12.289 68.3176C12.289 68.2342 12.2354 68.1542 12.1401 68.0953C12.0447 68.0363 11.9153 68.0031 11.7805 68.0031C11.6456 68.0031 11.5163 68.0363 11.4209 68.0953C11.3255 68.1542 11.2719 68.2342 11.2719 68.3176L11.2827 68.3226Z" fill="white"/>
<path d="M5.54549 62.2679H5.92517C6.09212 62.2679 6.25222 62.2248 6.37027 62.1479C6.48832 62.0711 6.55465 61.9669 6.55465 61.8583C6.55465 61.7496 6.48832 61.6454 6.37027 61.5686C6.25222 61.4918 6.09212 61.4486 5.92517 61.4486H5.54549C5.37854 61.4486 5.21844 61.4918 5.10039 61.5686C4.98234 61.6454 4.91602 61.7496 4.91602 61.8583C4.91602 61.9669 4.98234 62.0711 5.10039 62.1479C5.21844 62.2248 5.37854 62.2679 5.54549 62.2679Z" fill="white"/>
<path d="M9.83103 62.2679C10.0483 62.2679 10.2567 62.2248 10.4104 62.1479C10.564 62.0711 10.6503 61.9669 10.6503 61.8583C10.6503 61.7496 10.564 61.6454 10.4104 61.5686C10.2567 61.4918 10.0483 61.4486 9.83103 61.4486C9.61374 61.4486 9.40535 61.4918 9.2517 61.5686C9.09805 61.6454 9.01172 61.7496 9.01172 61.8583C9.01172 61.9669 9.09805 62.0711 9.2517 62.1479C9.40535 62.2248 9.61374 62.2679 9.83103 62.2679Z" fill="white"/>
<path d="M11.4697 58.1714C11.687 58.1714 11.8954 58.1282 12.049 58.0514C12.2027 57.9745 12.289 57.8704 12.289 57.7617C12.289 57.6531 12.2027 57.5489 12.049 57.472C11.8954 57.3952 11.687 57.3521 11.4697 57.3521C11.2524 57.3521 11.044 57.3952 10.8904 57.472C10.7367 57.5489 10.6504 57.6531 10.6504 57.7617C10.6504 57.8704 10.7367 57.9745 10.8904 58.0514C11.044 58.1282 11.2524 58.1714 11.4697 58.1714Z" fill="white"/>
<path d="M21.7124 48.3396C21.8211 48.3396 21.9253 48.2533 22.0021 48.0996C22.0789 47.946 22.122 47.7376 22.122 47.5203C22.122 47.303 22.0789 47.0946 22.0021 46.9409C21.9253 46.7873 21.8211 46.701 21.7124 46.701C21.6038 46.701 21.4995 46.7873 21.4227 46.9409C21.3459 47.0946 21.3027 47.303 21.3027 47.5203C21.3027 47.7376 21.3459 47.946 21.4227 48.0996C21.4995 48.2533 21.6038 48.3396 21.7124 48.3396Z" fill="white"/>
<path d="M25.1079 47.438C25.1713 47.3746 25.2347 47.3128 25.2965 47.2494C25.328 47.2207 25.3533 47.1859 25.371 47.1471C25.3887 47.1083 25.3983 47.0663 25.3993 47.0236C25.4003 46.981 25.3926 46.9386 25.3768 46.899C25.3609 46.8594 25.3372 46.8235 25.307 46.7933C25.2769 46.7632 25.2409 46.7395 25.2013 46.7236C25.1618 46.7077 25.1193 46.7001 25.0767 46.701C25.0341 46.702 24.9921 46.7117 24.9533 46.7293C24.9145 46.747 24.8796 46.7724 24.8509 46.8039L24.6624 46.9924C24.6077 47.0524 24.5783 47.1311 24.5802 47.2122C24.582 47.2933 24.6151 47.3705 24.6724 47.4279C24.7298 47.4853 24.8071 47.5183 24.8882 47.5202C24.9692 47.5221 25.0479 47.4926 25.1079 47.438Z" fill="white"/>
<path d="M29.0854 45.8816C29.1941 45.8816 29.2983 45.7953 29.3751 45.6417C29.4519 45.488 29.4951 45.2796 29.4951 45.0623C29.4951 44.845 29.4519 44.6366 29.3751 44.483C29.2983 44.3293 29.1941 44.243 29.0854 44.243C28.9768 44.243 28.8726 44.3293 28.7958 44.483C28.7189 44.6366 28.6758 44.845 28.6758 45.0623C28.6758 45.2796 28.7189 45.488 28.7958 45.6417C28.8726 45.7953 28.9768 45.8816 29.0854 45.8816Z" fill="white"/>
<path d="M29.4951 42.6044C29.7124 42.6044 29.9208 42.5612 30.0744 42.4844C30.2281 42.4076 30.3144 42.3034 30.3144 42.1947C30.3144 42.0861 30.2281 41.9819 30.0744 41.9051C29.9208 41.8282 29.7124 41.7851 29.4951 41.7851C29.2778 41.7851 29.0694 41.8282 28.9158 41.9051C28.7621 41.9819 28.6758 42.0861 28.6758 42.1947C28.6758 42.3034 28.7621 42.4076 28.9158 42.4844C29.0694 42.5612 29.2778 42.6044 29.4951 42.6044Z" fill="white"/>
<path d="M23.7607 44.243C23.978 44.243 24.1864 44.1567 24.3401 44.003C24.4937 43.8494 24.58 43.641 24.58 43.4237C24.58 43.2064 24.4937 42.998 24.3401 42.8443C24.1864 42.6907 23.978 42.6044 23.7607 42.6044C23.5434 42.6044 23.335 42.6907 23.1814 42.8443C23.0277 42.998 22.9414 43.2064 22.9414 43.4237C22.9414 43.641 23.0277 43.8494 23.1814 44.003C23.335 44.1567 23.5434 44.243 23.7607 44.243Z" fill="white"/>
<path d="M17.2051 44.0532V44.4329C17.2051 44.5998 17.2914 44.7599 17.445 44.878C17.5987 44.996 17.8071 45.0623 18.0244 45.0623C18.2417 45.0623 18.4501 44.996 18.6037 44.878C18.7574 44.7599 18.8437 44.5998 18.8437 44.4329V44.0532C18.8437 43.8862 18.7574 43.7261 18.6037 43.6081C18.4501 43.49 18.2417 43.4237 18.0244 43.4237C17.8071 43.4237 17.5987 43.49 17.445 43.6081C17.2914 43.7261 17.2051 43.8862 17.2051 44.0532Z" fill="white"/>
<path d="M20.8921 48.3396C21.0007 48.3396 21.1049 48.2533 21.1817 48.0996C21.2586 47.946 21.3017 47.7376 21.3017 47.5203C21.3017 47.303 21.2586 47.0946 21.1817 46.9409C21.1049 46.7873 21.0007 46.701 20.8921 46.701C20.7834 46.701 20.6792 46.7873 20.6024 46.9409C20.5256 47.0946 20.4824 47.303 20.4824 47.5203C20.4824 47.7376 20.5256 47.946 20.6024 48.0996C20.6792 48.2533 20.7834 48.3396 20.8921 48.3396Z" fill="white"/>
<path d="M15.5674 50.7975C15.7847 50.7975 15.993 50.7112 16.1467 50.5576C16.3003 50.4039 16.3867 50.1955 16.3867 49.9782C16.3867 49.7609 16.3003 49.5525 16.1467 49.3989C15.993 49.2452 15.7847 49.1589 15.5674 49.1589C15.3501 49.1589 15.1417 49.2452 14.988 49.3989C14.8344 49.5525 14.748 49.7609 14.748 49.9782C14.748 50.1955 14.8344 50.4039 14.988 50.5576C15.1417 50.7112 15.3501 50.7975 15.5674 50.7975Z" fill="white"/>
<path d="M13.4297 54.0726H13.6083C13.6492 54.0808 13.6904 54.0658 13.7291 54.0284C13.7678 53.991 13.8033 53.9322 13.8334 53.8555C13.8634 53.7788 13.8874 53.686 13.9038 53.5827C13.9202 53.4795 13.9287 53.3681 13.9287 53.2555C13.9287 53.1429 13.9202 53.0314 13.9038 52.9282C13.8874 52.825 13.8634 52.7321 13.8334 52.6554C13.8033 52.5788 13.7678 52.5199 13.7291 52.4826C13.6904 52.4452 13.6492 52.4301 13.6083 52.4383H13.4297C13.3888 52.4301 13.3477 52.4452 13.309 52.4826C13.2702 52.5199 13.2347 52.5788 13.2047 52.6554C13.1746 52.7321 13.1506 52.825 13.1342 52.9282C13.1178 53.0314 13.1094 53.1429 13.1094 53.2555C13.1094 53.3681 13.1178 53.4795 13.1342 53.5827C13.1506 53.686 13.1746 53.7788 13.2047 53.8555C13.2347 53.9322 13.2702 53.991 13.309 54.0284C13.3477 54.0658 13.3888 54.0808 13.4297 54.0726Z" fill="white"/>
<path d="M15.9761 54.8941C16.0847 54.8941 16.1889 54.8078 16.2657 54.6541C16.3426 54.5005 16.3857 54.2921 16.3857 54.0748C16.3857 53.8575 16.3426 53.6491 16.2657 53.4954C16.1889 53.3418 16.0847 53.2555 15.9761 53.2555C15.8674 53.2555 15.7632 53.3418 15.6864 53.4954C15.6096 53.6491 15.5664 53.8575 15.5664 54.0748C15.5664 54.2921 15.6096 54.5005 15.6864 54.6541C15.7632 54.8078 15.8674 54.8941 15.9761 54.8941Z" fill="white"/>
<path d="M37.6885 65.5452C37.9057 65.5452 38.1141 65.502 38.2678 65.4252C38.4214 65.3484 38.5078 65.2442 38.5078 65.1355C38.5078 65.0269 38.4214 64.9227 38.2678 64.8459C38.1141 64.7691 37.9057 64.7259 37.6885 64.7259C37.4712 64.7259 37.2628 64.7691 37.1091 64.8459C36.9555 64.9227 36.8691 65.0269 36.8691 65.1355C36.8691 65.2442 36.9555 65.3484 37.1091 65.4252C37.2628 65.502 37.4712 65.5452 37.6885 65.5452Z" fill="white"/>
<path d="M42.1948 68.8225C42.3035 68.8225 42.4077 68.7362 42.4845 68.5825C42.5613 68.4288 42.6045 68.2205 42.6045 68.0032C42.6045 67.7859 42.5613 67.5775 42.4845 67.4238C42.4077 67.2702 42.3035 67.1838 42.1948 67.1838C42.0862 67.1838 41.982 67.2702 41.9051 67.4238C41.8283 67.5775 41.7852 67.7859 41.7852 68.0032C41.7852 68.2205 41.8283 68.4288 41.9051 68.5825C41.982 68.7362 42.0862 68.8225 42.1948 68.8225Z" fill="white"/>
<path d="M43.0269 72.1583C43.0269 72.0778 43.0269 71.9933 43.0269 71.9128C43.0269 71.8323 42.9973 72.1181 43.0269 71.9973C43.0565 71.8766 42.9513 72.1865 42.9973 72.0738C43.0097 72.0468 43.024 72.0212 43.0401 71.9973C42.925 72.1946 42.9908 72.0738 43.0236 72.0295C43.0565 71.9853 43.1552 71.8645 43.2209 71.784C43.2831 71.7147 43.3331 71.6307 43.3679 71.5371C43.4027 71.4435 43.4217 71.3422 43.4236 71.2394C43.4256 71.1366 43.4104 71.0343 43.3792 70.9388C43.3479 70.8434 43.3012 70.7566 43.2418 70.6839C43.1823 70.6112 43.1115 70.5539 43.0335 70.5157C42.9555 70.4774 42.8719 70.4589 42.7879 70.4613C42.7039 70.4637 42.6211 70.4869 42.5447 70.5295C42.4682 70.5722 42.3996 70.6333 42.343 70.7094C42.1737 70.8875 42.0293 71.0982 41.9154 71.3332C41.8189 71.5916 41.7749 71.8747 41.7872 72.1583C41.7872 72.3601 41.8527 72.5536 41.9692 72.6962C42.0858 72.8389 42.2439 72.919 42.4087 72.919C42.5735 72.919 42.7316 72.8389 42.8482 72.6962C42.9647 72.5536 43.0302 72.3601 43.0302 72.1583H43.0269Z" fill="white"/>
<path d="M48.7495 68.8225C48.8581 68.8225 48.9623 68.7362 49.0392 68.5825C49.116 68.4288 49.1592 68.2205 49.1592 68.0032C49.1592 67.7859 49.116 67.5775 49.0392 67.4238C48.9623 67.2702 48.8581 67.1838 48.7495 67.1838C48.6409 67.1838 48.5367 67.2702 48.4598 67.4238C48.383 67.5775 48.3398 67.7859 48.3398 68.0032C48.3398 68.2205 48.383 68.4288 48.4598 68.5825C48.5367 68.7362 48.6409 68.8225 48.7495 68.8225Z" fill="white"/>
<path d="M57.3525 68.0031C57.5698 68.0031 57.7782 67.9168 57.9319 67.7632C58.0855 67.6095 58.1718 67.4011 58.1718 67.1838C58.1718 66.9665 58.0855 66.7581 57.9319 66.6045C57.7782 66.4508 57.5698 66.3645 57.3525 66.3645C57.1352 66.3645 56.9268 66.4508 56.7732 66.6045C56.6195 66.7581 56.5332 66.9665 56.5332 67.1838C56.5332 67.4011 56.6195 67.6095 56.7732 67.7632C56.9268 67.9168 57.1352 68.0031 57.3525 68.0031Z" fill="white"/>
<path d="M54.713 74.0261L54.3377 73.84C54.2811 73.8088 54.2124 73.7838 54.1358 73.7664C54.0593 73.7489 53.9764 73.7394 53.8923 73.7384C53.8082 73.7375 53.7246 73.745 53.6466 73.7607C53.5685 73.7763 53.4976 73.7998 53.4381 73.8295C53.3786 73.8593 53.3318 73.8948 53.3005 73.9339C53.2692 73.973 53.2541 74.0148 53.256 74.0569C53.258 74.099 53.277 74.1405 53.3118 74.1788C53.3467 74.2171 53.3967 74.2515 53.4589 74.2798L53.8308 74.466C53.8885 74.495 53.9571 74.518 54.0326 74.5337C54.108 74.5494 54.1889 74.5576 54.2707 74.5577C54.3525 74.5577 54.4335 74.5498 54.5091 74.5342C54.5846 74.5186 54.6534 74.4957 54.7113 74.4668C54.7692 74.4379 54.8152 74.4036 54.8466 74.3658C54.8781 74.3281 54.8943 74.2876 54.8945 74.2466C54.8946 74.2057 54.8787 74.1652 54.8475 74.1273C54.8164 74.0895 54.7707 74.0551 54.713 74.0261Z" fill="white"/>
<path d="M34.601 80.2928H34.2213C34.0543 80.2928 33.8942 80.336 33.7762 80.4128C33.6581 80.4897 33.5918 80.5939 33.5918 80.7025C33.5918 80.8111 33.6581 80.9154 33.7762 80.9922C33.8942 81.069 34.0543 81.1122 34.2213 81.1122H34.601C34.6836 81.1122 34.7655 81.1016 34.8418 81.081C34.9182 81.0604 34.9876 81.0302 35.0461 80.9922C35.1045 80.9541 35.1509 80.909 35.1825 80.8593C35.2141 80.8096 35.2304 80.7563 35.2304 80.7025C35.2304 80.6487 35.2141 80.5954 35.1825 80.5457C35.1509 80.496 35.1045 80.4509 35.0461 80.4128C34.9876 80.3748 34.9182 80.3446 34.8418 80.324C34.7655 80.3034 34.6836 80.2928 34.601 80.2928Z" fill="white"/>
<path d="M31.1347 76.7002V76.5117C31.1347 76.428 31.0484 76.3478 30.8947 76.2887C30.7411 76.2295 30.5327 76.1963 30.3154 76.1963C30.0981 76.1963 29.8897 76.2295 29.7361 76.2887C29.5824 76.3478 29.4961 76.428 29.4961 76.5117V76.7002C29.4961 76.7839 29.5824 76.8641 29.7361 76.9232C29.8897 76.9824 30.0981 77.0156 30.3154 77.0156C30.5327 77.0156 30.7411 76.9824 30.8947 76.9232C31.0484 76.8641 31.1347 76.7839 31.1347 76.7002Z" fill="white"/>
<path d="M34.4121 74.2429V74.0531C34.4121 73.9696 34.3257 73.8896 34.1721 73.8305C34.0184 73.7715 33.81 73.7383 33.5928 73.7383C33.3755 73.7383 33.1671 73.7715 33.0134 73.8305C32.8598 73.8896 32.7734 73.9696 32.7734 74.0531V74.2429C32.7734 74.3264 32.8598 74.4064 33.0134 74.4655C33.1671 74.5245 33.3755 74.5577 33.5928 74.5577C33.81 74.5577 34.0184 74.5245 34.1721 74.4655C34.3257 74.4064 34.4121 74.3264 34.4121 74.2429Z" fill="white"/>
<path d="M34.4111 70.6497V70.2725C34.4111 70.1053 34.3679 69.9448 34.2911 69.8265C34.2143 69.7082 34.1101 69.6418 34.0015 69.6418C33.8928 69.6418 33.7886 69.7082 33.7118 69.8265C33.635 69.9448 33.5918 70.1053 33.5918 70.2725V70.6497C33.5918 70.8169 33.635 70.9774 33.7118 71.0957C33.7886 71.214 33.8928 71.2804 34.0015 71.2804C34.1101 71.2804 34.2143 71.214 34.2911 71.0957C34.3679 70.9774 34.4111 70.8169 34.4111 70.6497Z" fill="white"/>
<path d="M34.7906 65.8563V65.9428C34.7906 65.9728 34.7608 66.016 34.7906 65.8996V65.9146C34.814 65.8702 34.861 65.83 34.9268 65.7981L35.033 65.7582C35.1614 65.7326 35.1979 65.7243 35.1426 65.7332C35.0563 65.7482 35.3352 65.7232 35.2356 65.7332C35.1703 65.7349 35.1049 65.7349 35.0397 65.7332C34.8732 65.7332 34.7136 65.7663 34.5959 65.8253C34.4782 65.8843 34.4121 65.9643 34.4121 66.0477C34.4121 66.1311 34.4782 66.211 34.5959 66.27C34.7136 66.329 34.8732 66.3621 35.0397 66.3621C35.3175 66.3752 35.5946 66.3341 35.8133 66.2473C35.9034 66.1943 35.9703 66.1324 36.0097 66.0656C36.0492 65.9989 36.0603 65.9287 36.0425 65.8597C36.0425 65.7763 35.9763 65.6963 35.8586 65.6373C35.741 65.5783 35.5813 65.5452 35.4149 65.5452C35.2485 65.5452 35.0888 65.5783 34.9711 65.6373C34.8534 65.6963 34.7873 65.7763 34.7873 65.8597L34.7906 65.8563Z" fill="white"/>
<path d="M28.045 69.6418H27.6679C27.585 69.6418 27.503 69.6524 27.4265 69.673C27.35 69.6936 27.2804 69.7237 27.2219 69.7618C27.1633 69.7998 27.1168 69.845 27.0851 69.8947C27.0534 69.9444 27.0371 69.9976 27.0371 70.0514C27.0371 70.1052 27.0534 70.1585 27.0851 70.2082C27.1168 70.2579 27.1633 70.3031 27.2219 70.3411C27.2804 70.3792 27.35 70.4093 27.4265 70.4299C27.503 70.4505 27.585 70.4611 27.6679 70.4611H28.045C28.2123 70.4611 28.3727 70.4179 28.491 70.3411C28.6093 70.2643 28.6757 70.1601 28.6757 70.0514C28.6757 69.9428 28.6093 69.8386 28.491 69.7618C28.3727 69.6849 28.2123 69.6418 28.045 69.6418Z" fill="white"/>
<path d="M22.4358 68.8225H22.6257C22.7091 68.8225 22.7892 68.7362 22.8482 68.5825C22.9072 68.4288 22.9404 68.2205 22.9404 68.0032C22.9404 67.7859 22.9072 67.5775 22.8482 67.4238C22.7892 67.2702 22.7091 67.1838 22.6257 67.1838H22.4358C22.3523 67.1838 22.2723 67.2702 22.2133 67.4238C22.1542 67.5775 22.1211 67.7859 22.1211 68.0032C22.1211 68.2205 22.1542 68.4288 22.2133 68.5825C22.2723 68.7362 22.3523 68.8225 22.4358 68.8225Z" fill="white"/>
<path d="M63.7173 77.0156H64.097C64.264 77.0156 64.4241 76.9724 64.5421 76.8956C64.6602 76.8188 64.7265 76.7146 64.7265 76.6059C64.7265 76.4973 64.6602 76.3931 64.5421 76.3163C64.4241 76.2394 64.264 76.1963 64.097 76.1963H63.7173C63.5504 76.1963 63.3903 76.2394 63.2722 76.3163C63.1542 76.3931 63.0879 76.4973 63.0879 76.6059C63.0879 76.7146 63.1542 76.8188 63.2722 76.8956C63.3903 76.9724 63.5504 77.0156 63.7173 77.0156Z" fill="white"/>
<path d="M69.4463 72.0997H69.8301C69.9974 72.0997 70.1579 72.0134 70.2761 71.8598C70.3944 71.7061 70.4609 71.4977 70.4609 71.2804C70.4609 71.0631 70.3944 70.8547 70.2761 70.7011C70.1579 70.5474 69.9974 70.4611 69.8301 70.4611H69.453C69.2857 70.4611 69.1253 70.5474 69.007 70.7011C68.8887 70.8547 68.8223 71.0631 68.8223 71.2804C68.8223 71.4977 68.8887 71.7061 69.007 71.8598C69.1253 72.0134 69.2857 72.0997 69.453 72.0997H69.4463Z" fill="white"/>
<path d="M76.5157 72.918H76.6943C76.7352 72.9221 76.7763 72.9145 76.815 72.8958C76.8538 72.8772 76.8893 72.8477 76.9193 72.8094C76.9494 72.7711 76.9734 72.7246 76.9898 72.673C77.0062 72.6214 77.0146 72.5657 77.0146 72.5094C77.0146 72.4531 77.0062 72.3974 76.9898 72.3458C76.9734 72.2941 76.9494 72.2477 76.9193 72.2094C76.8893 72.171 76.8538 72.1416 76.815 72.1229C76.7763 72.1042 76.7352 72.0967 76.6943 72.1008H76.5157C76.4748 72.0967 76.4336 72.1042 76.3949 72.1229C76.3562 72.1416 76.3207 72.171 76.2906 72.2094C76.2606 72.2477 76.2366 72.2941 76.2202 72.3458C76.2038 72.3974 76.1953 72.4531 76.1953 72.5094C76.1953 72.5657 76.2038 72.6214 76.2202 72.673C76.2366 72.7246 76.2606 72.7711 76.2906 72.8094C76.3207 72.8477 76.3562 72.8772 76.3949 72.8958C76.4336 72.9145 76.4748 72.9221 76.5157 72.918Z" fill="white"/>
<path d="M66.7749 68.8225C66.8835 68.8225 66.9877 68.7362 67.0646 68.5825C67.1414 68.4288 67.1845 68.2205 67.1845 68.0032C67.1845 67.7859 67.1414 67.5775 67.0646 67.4238C66.9877 67.2702 66.8835 67.1838 66.7749 67.1838C66.6662 67.1838 66.562 67.2702 66.4852 67.4238C66.4084 67.5775 66.3652 67.7859 66.3652 68.0032C66.3652 68.2205 66.4084 68.4288 66.4852 68.5825C66.562 68.7362 66.6662 68.8225 66.7749 68.8225Z" fill="white"/>
<path d="M70.4676 65.3557C70.4408 65.632 70.5231 65.9078 70.6969 66.1247C70.8026 66.2151 70.9261 66.2825 71.0595 66.3225C71.1929 66.3624 71.3332 66.3741 71.4714 66.3567C71.638 66.3567 71.7978 66.2907 71.9156 66.1732C72.0334 66.0557 72.0996 65.8964 72.0996 65.7302C72.0996 65.5641 72.0334 65.4047 71.9156 65.2872C71.7978 65.1698 71.638 65.1038 71.4714 65.1038H71.2985C71.2387 65.1038 71.1556 65.0772 71.385 65.1038H71.355C71.4433 65.126 71.5237 65.1718 71.5877 65.2363L71.6675 65.3424C71.7173 65.475 71.7339 65.5115 71.7173 65.4551C71.7007 65.3988 71.7373 65.6474 71.7173 65.5479C71.714 65.4828 71.714 65.4175 71.7173 65.3524C71.7173 65.1862 71.6511 65.0269 71.5333 64.9094C71.4155 64.7919 71.2557 64.7259 71.0891 64.7259C70.9225 64.7259 70.7627 64.7919 70.6449 64.9094C70.5271 65.0269 70.4609 65.1862 70.4609 65.3524L70.4676 65.3557Z" fill="white"/>
<path d="M73.3296 68.0031C73.4382 68.0031 73.5424 67.9168 73.6192 67.7632C73.6961 67.6095 73.7392 67.4011 73.7392 67.1838C73.7392 66.9665 73.6961 66.7581 73.6192 66.6045C73.5424 66.4508 73.4382 66.3645 73.3296 66.3645C73.2209 66.3645 73.1167 66.4508 73.0399 66.6045C72.9631 66.7581 72.9199 66.9665 72.9199 67.1838C72.9199 67.4011 72.9631 67.6095 73.0399 67.7632C73.1167 67.9168 73.2209 68.0031 73.3296 68.0031Z" fill="white"/>
<path d="M76.0522 69.6407H76.4319C76.5905 69.6332 76.7388 69.5868 76.8471 69.5111C76.9554 69.4353 77.0156 69.3356 77.0156 69.2321C77.0156 69.1286 76.9554 69.029 76.8471 68.9532C76.7388 68.8774 76.5905 68.8311 76.4319 68.8235H76.0522C75.9659 68.8194 75.8792 68.827 75.7976 68.8456C75.716 68.8643 75.6412 68.8937 75.5778 68.9321C75.5145 68.9704 75.4639 69.0169 75.4294 69.0685C75.3948 69.1201 75.377 69.1758 75.377 69.2321C75.377 69.2884 75.3948 69.3441 75.4294 69.3957C75.4639 69.4474 75.5145 69.4938 75.5778 69.5321C75.6412 69.5705 75.716 69.5999 75.7976 69.6186C75.8792 69.6372 75.9659 69.6448 76.0522 69.6407Z" fill="white"/>
<path d="M81.7421 71.2804H82.1192C82.2021 71.2804 82.2841 71.2698 82.3606 71.2492C82.4371 71.2286 82.5067 71.1985 82.5652 71.1604C82.6238 71.1224 82.6703 71.0772 82.702 71.0275C82.7337 70.9778 82.75 70.9245 82.75 70.8707C82.75 70.8169 82.7337 70.7637 82.702 70.714C82.6703 70.6643 82.6238 70.6191 82.5652 70.5811C82.5067 70.543 82.4371 70.5129 82.3606 70.4923C82.2841 70.4717 82.2021 70.4611 82.1192 70.4611H81.7421C81.5748 70.4611 81.4144 70.5042 81.2961 70.5811C81.1778 70.6579 81.1113 70.7621 81.1113 70.8707C81.1113 70.9794 81.1778 71.0836 81.2961 71.1604C81.4144 71.2372 81.5748 71.2804 81.7421 71.2804Z" fill="white"/>
<path d="M89.7143 71.2804C89.823 71.2804 89.9272 71.2372 90.004 71.1604C90.0808 71.0836 90.124 70.9794 90.124 70.8708C90.124 70.7621 90.0808 70.6579 90.004 70.5811C89.9272 70.5043 89.823 70.4611 89.7143 70.4611C89.6057 70.4611 89.5015 70.5043 89.4247 70.5811C89.3479 70.6579 89.3047 70.7621 89.3047 70.8708C89.3047 70.9794 89.3479 71.0836 89.4247 71.1604C89.5015 71.2372 89.6057 71.2804 89.7143 71.2804Z" fill="white"/>
<path d="M80.2996 63.7169C80.2734 63.9941 80.3555 64.2707 80.5289 64.489C80.6349 64.5788 80.7585 64.6456 80.8919 64.685C81.0253 64.7243 81.1655 64.7355 81.3034 64.7176C81.3859 64.7176 81.4676 64.7014 81.5438 64.6699C81.62 64.6385 81.6893 64.5923 81.7476 64.5342C81.8059 64.476 81.8522 64.407 81.8838 64.331C81.9153 64.255 81.9316 64.1736 81.9316 64.0913C81.9316 64.0091 81.9153 63.9276 81.8838 63.8516C81.8522 63.7757 81.8059 63.7066 81.7476 63.6485C81.6893 63.5903 81.62 63.5442 81.5438 63.5127C81.4676 63.4812 81.3859 63.465 81.3034 63.465H81.1306C81.0707 63.465 80.9876 63.4385 81.217 63.465H81.187C81.2747 63.4885 81.3549 63.5342 81.4197 63.5976L81.5028 63.7069C81.5527 63.8362 81.566 63.8726 81.5494 63.8163C81.5327 63.7599 81.5693 64.0085 81.5494 63.9091C81.5461 63.8439 81.5461 63.7787 81.5494 63.7135C81.5494 63.5474 81.4832 63.3881 81.3654 63.2707C81.2476 63.1532 81.0878 63.0872 80.9212 63.0872C80.7546 63.0872 80.5948 63.1532 80.477 63.2707C80.3592 63.3881 80.293 63.5474 80.293 63.7135L80.2996 63.7169Z" fill="white"/>
<path d="M90.1316 62.8977C90.1044 63.1746 90.1879 63.4511 90.3638 63.6667C90.4693 63.7572 90.5925 63.8246 90.7257 63.8645C90.8588 63.9045 90.9988 63.9161 91.1367 63.8987C91.303 63.8987 91.4625 63.8327 91.58 63.7153C91.6976 63.5978 91.7636 63.4384 91.7636 63.2723C91.7636 63.1061 91.6976 62.9468 91.58 62.8293C91.4625 62.7118 91.303 62.6458 91.1367 62.6458H90.9609C90.9045 62.6458 90.8183 62.6193 91.0472 62.6458H91.0173C91.1048 62.6693 91.1848 62.715 91.2495 62.7784L91.3324 62.8845C91.3822 63.017 91.3955 63.0535 91.3789 62.9972C91.3623 62.9408 91.3988 63.1894 91.3789 63.09C91.3756 63.0248 91.3756 62.9595 91.3789 62.8944C91.3789 62.7283 91.3128 62.5689 91.1952 62.4514C91.0777 62.3339 90.9182 62.2679 90.7519 62.2679C90.5857 62.2679 90.4262 62.3339 90.3086 62.4514C90.1911 62.5689 90.125 62.7283 90.125 62.8944L90.1316 62.8977Z" fill="white"/>
<path d="M114.703 66.9953V67.3724C114.703 67.5397 114.746 67.7001 114.823 67.8184C114.9 67.9367 115.004 68.0031 115.113 68.0031C115.221 68.0031 115.326 67.9367 115.402 67.8184C115.479 67.7001 115.522 67.5397 115.522 67.3724V66.9953C115.522 66.828 115.479 66.6675 115.402 66.5492C115.326 66.431 115.221 66.3645 115.113 66.3645C115.004 66.3645 114.9 66.431 114.823 66.5492C114.746 66.6675 114.703 66.828 114.703 66.9953Z" fill="white"/>
<path d="M118.611 64.7259H118.988C119.156 64.7259 119.316 64.6396 119.434 64.4859C119.553 64.3323 119.619 64.1239 119.619 63.9066C119.619 63.6893 119.553 63.4809 119.434 63.3272C119.316 63.1736 119.156 63.0872 118.988 63.0872H118.611C118.444 63.0872 118.283 63.1736 118.165 63.3272C118.047 63.4809 117.98 63.6893 117.98 63.9066C117.98 64.1239 118.047 64.3323 118.165 64.4859C118.283 64.6396 118.444 64.7259 118.611 64.7259Z" fill="white"/>
<path d="M122.903 61.7635C122.876 61.902 122.959 62.0402 123.135 62.148C123.241 62.1932 123.364 62.2269 123.497 62.2469C123.63 62.2669 123.77 62.2727 123.908 62.264C124.074 62.264 124.234 62.231 124.351 62.1723C124.469 62.1135 124.535 62.0338 124.535 61.9508C124.535 61.8677 124.469 61.788 124.351 61.7293C124.234 61.6705 124.074 61.6375 123.908 61.6375H123.732C123.676 61.6375 123.59 61.6243 123.819 61.6375H123.789C123.877 61.6486 123.957 61.6716 124.021 61.7038L124.104 61.7569C124.154 61.8232 124.17 61.8414 124.15 61.8132C124.13 61.785 124.17 61.9093 124.15 61.8596C124.13 61.8099 124.15 61.7933 124.15 61.7618C124.15 61.6788 124.084 61.5991 123.967 61.5404C123.849 61.4816 123.69 61.4486 123.523 61.4486C123.357 61.4486 123.198 61.4816 123.08 61.5404C122.963 61.5991 122.896 61.6788 122.896 61.7618L122.903 61.7635Z" fill="white"/>
<path d="M138.78 64.7259H138.969C139.052 64.7259 139.133 64.6827 139.192 64.6059C139.251 64.5291 139.284 64.4249 139.284 64.3162C139.284 64.2076 139.251 64.1034 139.192 64.0265C139.133 63.9497 139.052 63.9066 138.969 63.9066H138.78C138.739 63.9066 138.698 63.9171 138.659 63.9377C138.621 63.9583 138.586 63.9885 138.557 64.0265C138.528 64.0646 138.505 64.1097 138.489 64.1594C138.473 64.2091 138.465 64.2624 138.465 64.3162C138.465 64.37 138.473 64.4233 138.489 64.473C138.505 64.5227 138.528 64.5678 138.557 64.6059C138.586 64.6439 138.621 64.6741 138.659 64.6947C138.698 64.7153 138.739 64.7259 138.78 64.7259Z" fill="white"/>
<path d="M144.631 67.1838H145.407C145.521 67.1838 145.631 67.1407 145.712 67.0638C145.792 66.987 145.838 66.8828 145.838 66.7742C145.838 66.6655 145.792 66.5613 145.712 66.4845C145.631 66.4077 145.521 66.3645 145.407 66.3645H144.631C144.516 66.3645 144.406 66.4077 144.326 66.4845C144.245 66.5613 144.199 66.6655 144.199 66.7742C144.199 66.8828 144.245 66.987 144.326 67.0638C144.406 67.1407 144.516 67.1838 144.631 67.1838Z" fill="white"/>
<path d="M144.012 52.4362H144.389C144.556 52.4362 144.716 52.393 144.835 52.3162C144.953 52.2394 145.019 52.1352 145.019 52.0265C145.019 51.9179 144.953 51.8137 144.835 51.7368C144.716 51.66 144.556 51.6169 144.389 51.6169H144.012C143.929 51.6169 143.847 51.6274 143.77 51.648C143.694 51.6686 143.624 51.6988 143.566 51.7368C143.507 51.7749 143.461 51.82 143.429 51.8697C143.397 51.9194 143.381 51.9727 143.381 52.0265C143.381 52.0803 143.397 52.1336 143.429 52.1833C143.461 52.233 143.507 52.2781 143.566 52.3162C143.624 52.3542 143.694 52.3844 143.77 52.405C143.847 52.4256 143.929 52.4362 144.012 52.4362Z" fill="white"/>
<path d="M136.333 27.0363H136.505C136.546 27.0404 136.587 27.0329 136.626 27.0142C136.664 26.9955 136.7 26.9661 136.73 26.9277C136.76 26.8894 136.784 26.843 136.8 26.7914C136.817 26.7397 136.825 26.684 136.825 26.6277C136.825 26.5714 136.817 26.5157 136.8 26.4641C136.784 26.4125 136.76 26.3661 136.73 26.3277C136.7 26.2894 136.664 26.26 136.626 26.2413C136.587 26.2226 136.546 26.2151 136.505 26.2192H136.326C136.285 26.2151 136.244 26.2226 136.205 26.2413C136.167 26.26 136.131 26.2894 136.101 26.3277C136.071 26.3661 136.047 26.4125 136.031 26.4641C136.014 26.5157 136.006 26.5714 136.006 26.6277C136.006 26.684 136.014 26.7397 136.031 26.7914C136.047 26.843 136.071 26.8894 136.101 26.9277C136.131 26.9661 136.167 26.9955 136.205 27.0142C136.244 27.0329 136.285 27.0404 136.326 27.0363H136.333Z" fill="white"/>
<path d="M138.275 28.676H138.652C138.82 28.676 138.98 28.5897 139.098 28.436C139.217 28.2824 139.283 28.074 139.283 27.8567C139.283 27.6394 139.217 27.431 139.098 27.2774C138.98 27.1237 138.82 27.0374 138.652 27.0374H138.275C138.108 27.0374 137.948 27.1237 137.829 27.2774C137.711 27.431 137.645 27.6394 137.645 27.8567C137.645 28.074 137.711 28.2824 137.829 28.436C137.948 28.5897 138.108 28.676 138.275 28.676Z" fill="white"/>
<path d="M142.058 30.3147H142.246C142.33 30.3147 142.41 30.2283 142.469 30.0747C142.528 29.921 142.562 29.7126 142.562 29.4953C142.562 29.2781 142.528 29.0697 142.469 28.916C142.41 28.7624 142.33 28.676 142.246 28.676H142.058C141.974 28.676 141.894 28.7624 141.835 28.916C141.775 29.0697 141.742 29.2781 141.742 29.4953C141.742 29.7126 141.775 29.921 141.835 30.0747C141.894 30.2283 141.974 30.3147 142.058 30.3147Z" fill="white"/>
<path d="M111.229 57.3439C111.405 57.3469 111.578 57.3107 111.73 57.2392C111.881 57.1678 112.006 57.0639 112.089 56.939C112.208 56.7134 112.261 56.4685 112.243 56.2236C112.243 56.0883 112.176 55.9585 112.057 55.8629C111.939 55.7672 111.778 55.7134 111.611 55.7134C111.443 55.7134 111.282 55.7672 111.164 55.8629C111.045 55.9585 110.979 56.0883 110.979 56.2236C110.979 56.2776 110.979 56.3343 110.979 56.391C110.979 56.4477 110.979 56.4342 110.979 56.4558C110.979 56.5692 111.005 56.3343 110.979 56.4396C110.979 56.4585 110.979 56.4774 110.979 56.4963C110.945 56.5908 111.049 56.3856 110.979 56.4666L111.039 56.4018C111.132 56.3505 111.149 56.337 111.096 56.364L111.186 56.3316C111.293 56.3316 111.313 56.3316 111.239 56.3316C111.156 56.3316 111.074 56.3448 110.998 56.3704C110.921 56.3961 110.851 56.4337 110.793 56.481C110.734 56.5284 110.687 56.5847 110.656 56.6466C110.624 56.7085 110.607 56.7748 110.607 56.8418C110.607 56.9088 110.624 56.9752 110.656 57.0371C110.687 57.099 110.734 57.1552 110.793 57.2026C110.851 57.25 110.921 57.2876 110.998 57.3132C111.074 57.3388 111.156 57.352 111.239 57.352L111.229 57.3439Z" fill="white"/>
<path d="M116.657 55.7134H116.846C116.888 55.7134 116.929 55.7028 116.967 55.6822C117.005 55.6617 117.04 55.6315 117.069 55.5934C117.098 55.5554 117.121 55.5102 117.137 55.4605C117.153 55.4108 117.161 55.3576 117.161 55.3038C117.161 55.25 117.153 55.1967 117.137 55.147C117.121 55.0973 117.098 55.0521 117.069 55.0141C117.04 54.976 117.005 54.9459 116.967 54.9253C116.929 54.9047 116.888 54.8941 116.846 54.8941H116.657C116.615 54.8941 116.574 54.9047 116.536 54.9253C116.498 54.9459 116.463 54.976 116.434 55.0141C116.405 55.0521 116.382 55.0973 116.366 55.147C116.35 55.1967 116.342 55.25 116.342 55.3038C116.342 55.3576 116.35 55.4108 116.366 55.4605C116.382 55.5102 116.405 55.5554 116.434 55.5934C116.463 55.6315 116.498 55.6617 116.536 55.6822C116.574 55.7028 116.615 55.7134 116.657 55.7134Z" fill="white"/>
<path d="M118.39 58.1713C118.501 58.1563 118.606 58.0634 118.682 57.9114C118.758 57.7594 118.8 57.5596 118.8 57.352C118.8 57.1445 118.758 56.9446 118.682 56.7927C118.606 56.6407 118.501 56.5478 118.39 56.5327C118.279 56.5478 118.175 56.6407 118.099 56.7927C118.023 56.9446 117.98 57.1445 117.98 57.352C117.98 57.5596 118.023 57.7594 118.099 57.9114C118.175 58.0634 118.279 58.1563 118.39 58.1713Z" fill="white"/>
<path d="M120.438 59.81C120.656 59.81 120.864 59.7237 121.018 59.57C121.171 59.4164 121.258 59.208 121.258 58.9907C121.258 58.7734 121.171 58.565 121.018 58.4113C120.864 58.2577 120.656 58.1714 120.438 58.1714C120.221 58.1714 120.013 58.2577 119.859 58.4113C119.705 58.565 119.619 58.7734 119.619 58.9907C119.619 59.208 119.705 59.4164 119.859 59.57C120.013 59.7237 120.221 59.81 120.438 59.81Z" fill="white"/>
<path d="M123.212 57.352H123.4C123.484 57.352 123.564 57.3089 123.623 57.232C123.683 57.1552 123.716 57.051 123.716 56.9424C123.716 56.8337 123.683 56.7295 123.623 56.6527C123.564 56.5759 123.484 56.5327 123.4 56.5327H123.212C123.128 56.5327 123.048 56.5759 122.989 56.6527C122.93 56.7295 122.896 56.8337 122.896 56.9424C122.896 57.051 122.93 57.1552 122.989 57.232C123.048 57.3089 123.128 57.352 123.212 57.352Z" fill="white"/>
</svg>
