<svg width="124" height="96" viewBox="0 0 124 96" fill="none" xmlns="http://www.w3.org/2000/svg">
<path d="M116.179 15.6202L113.401 14.0847C113.401 14.0847 108.257 13.3128 101.642 15.1994C95.0283 17.086 88.4863 20.2546 88.4863 20.2546L96.82 32.1317L105.006 36.8692L116.343 20.1236L116.179 15.6202Z" fill="#7D0D98"/>
<path d="M23.9082 39.3271C23.9082 39.3271 13.7621 45.769 8.35875 50.8707C4.22578 54.773 0.818359 61.7921 0.818359 61.7921L17.1921 69.6418L30.3137 61.9807L23.9082 39.3271Z" fill="#7D0D98"/>
<path d="M63.907 95.0405C90.1517 95.0405 111.427 73.9484 111.427 47.9299C111.427 21.9114 90.1517 0.819305 63.907 0.819305C37.6622 0.819305 16.3867 21.9114 16.3867 47.9299C16.3867 73.9484 37.6622 95.0405 63.907 95.0405Z" fill="#ED6326"/>
<path d="M71.0068 82.6128C69.3263 75.2 66.7609 71.3192 61.0556 66.1663C56.7177 62.2488 53.0808 60.8192 53.0951 54.6278C53.0951 50.7188 54.6608 48.2536 55.7898 44.6569C57.3526 39.6926 54.1666 34.1373 54.724 28.7057C55.0515 25.52 56.8182 22.8521 57.5651 19.7649C58.358 16.4891 57.7232 13.4131 56.9331 10.1317C56.2523 7.31742 55.2497 4.06977 54.6924 0.819305C51.5616 1.41342 48.4986 2.30991 45.5483 3.49566C46.4541 4.42016 47.1352 5.53292 47.5411 6.75107C47.947 7.96921 48.0671 9.26136 47.8925 10.5313C47.3726 14.0322 44.2671 17.1307 43.0088 20.415C41.5724 24.127 40.6818 27.9909 41.0467 31.9787C41.4288 36.1551 42.8652 40.1401 42.6842 44.4374C42.5061 48.5631 41.581 52.2976 42.6842 56.4008C43.8936 60.9036 46.0281 62.8511 48.8693 66.3436C51.2336 69.2507 51.3398 72.7657 53.0147 75.9317C56.1747 81.8755 63.0033 82.9505 64.2501 90.5912C64.454 91.852 64.4167 93.4505 64.4598 95.0405C66.9625 95.016 69.4595 94.8034 71.929 94.4045C72.3973 90.5265 71.8342 86.2713 71.0068 82.6128Z" fill="#EF8A34"/>
<path d="M49.0608 79.3675C46.7168 74.8868 44.7635 72.1787 40.5889 69.2858C38.323 67.7063 36.498 66.7654 34.8935 64.3906C31.916 59.9855 31.9774 54.7906 31.9774 49.5481C31.9774 43.7063 30.0771 38.5926 30.3952 32.7144C30.6742 27.4664 33.0489 23.6969 34.26 18.7457C34.9214 16.046 35.0358 12.7919 35.7557 9.83179C31.1215 13.2685 27.15 17.5237 24.0356 22.3891C24.8895 26.461 27.1051 30.1352 26.3601 34.5488C25.2885 40.9618 21.2228 46.0307 23.7621 52.7154C24.99 55.9416 26.6531 58.0363 26.9935 61.5341C27.2391 64.0349 27.2726 66.883 28.5758 69.1514C29.7785 71.2489 31.9243 72.2487 33.5819 73.9122C35.4543 75.8137 36.2385 77.9421 37.363 80.3225C39.2969 84.4196 42.2855 87.5309 44.6909 91.1939C47.7042 92.5316 50.8498 93.5463 54.0754 94.2212C53.5954 88.9535 51.9072 84.8088 49.0608 79.3675Z" fill="#EF8A34"/>
<path d="M98.1413 69.2693C96.156 64.4836 97.9836 59.1469 95.7392 54.186C95.069 52.7085 94.3312 51.0275 92.9683 50.0387C91.7799 49.1714 90.6901 49.7562 89.7608 48.5414C88.3725 46.7051 88.8005 42.1397 88.8034 39.8768C88.8034 33.0033 89.8988 26.2625 92.8725 20.0218C93.599 18.4991 94.5621 15.4141 95.8941 12.7161C93.3466 10.3663 90.5527 8.3004 87.5615 6.5545C87.998 13.9252 84.9538 21.4061 82.4926 28.2599C79.7611 35.9075 76.8747 49.4991 83.6191 55.9771C85.8465 58.1214 88.1951 58.87 89.1075 61.9748C89.9523 64.8 88.8259 67.4867 88.7977 70.3033C88.7808 72.9335 89.192 76.5581 91.0956 78.6261C92.5627 80.2223 94.8268 80.9709 96.9895 81.9315C99.6805 79.2828 102.051 76.3252 104.052 73.1199C101.65 72.586 99.3634 72.2159 98.1413 69.2693Z" fill="#EF8A34"/>
<path d="M74.6988 3.63138C74.6988 3.1216 74.6988 2.58967 74.7297 2.05218C71.7916 1.36231 68.7936 0.949489 65.7761 0.819305C65.7761 11.6964 65.6524 23.1303 63.5441 33.7746C62.6536 38.4146 62.2271 43.1295 62.2706 47.8516C62.2706 52.7249 62.5517 54.185 65.703 57.7285C68.025 60.3328 69.2901 63.3526 69.9198 66.7659C70.5663 70.2485 71.0161 70.617 73.0121 73.4484C74.0887 74.9722 74.4795 76.8506 75.0586 78.6542C80.5572 78.4797 72.7534 60.2386 72.4386 57.6509C71.9073 53.2597 71.2495 51.5558 68.1291 47.979C65.3769 44.8179 64.0698 43.8898 66.0741 39.9252C67.8199 36.4731 69.3463 33.6389 69.5965 29.7768C69.8017 26.5713 68.2809 23.7897 68.6323 20.5814C69.3547 14.0984 74.6453 10.3083 74.6988 3.63138Z" fill="#EF8A34"/>
<path d="M102.667 20.4996C102.135 21.481 101.653 22.3508 101.345 23.0088C98.0146 30.2574 98.8897 37.8964 101.087 45.4489C102.274 49.5249 105.459 58.5913 109.582 60.6293C111.548 53.8544 111.948 46.732 110.753 39.785C109.558 32.8379 106.798 26.2426 102.676 20.4829L102.667 20.4996Z" fill="#EF8A34"/>
<path opacity="0.2" d="M96.4795 80.801C104.652 72.7833 109.627 62.0679 110.478 50.6536C111.328 39.2392 107.996 27.9053 101.102 18.7658C94.2089 9.62629 84.2248 3.3053 73.0123 0.981809C61.7998 -1.34169 50.1246 0.490969 40.1644 6.13795C41.1859 7.59712 42.8439 8.90842 45.2723 9.93793C54.3101 13.7658 65.0702 13.4589 74.1695 17.0719C93.25 24.644 107.061 41.8778 95.0169 61.9658C90.1379 70.107 81.019 76.9145 71.6909 78.1338C60.9504 79.5288 54.9214 71.2871 49.4479 63.3468C44.0051 55.4483 38.9809 39.3975 28.7931 36.0607C26.0912 35.1762 18.6638 34.7494 16.7909 40.932C15.5098 50.6496 17.2915 60.5247 21.888 69.1828C26.4845 77.8409 33.6672 84.8511 42.4362 89.2377C51.2052 93.6243 61.1243 95.1691 70.8127 93.6569C80.5011 92.1448 89.4769 87.651 96.4906 80.801H96.4795Z" fill="#9CE8E6"/>
<path opacity="0.1" d="M50.7052 43.5098C44.4959 51.1864 34.9166 53.8877 29.3037 49.541C23.6909 45.1943 24.1902 35.4506 30.4023 27.7712C36.6145 20.0919 46.1909 17.3933 51.8038 21.74C57.4167 26.0867 56.9287 35.8305 50.7052 43.5098Z" fill="white"/>
<path d="M1.27883 60.6551C1.27883 60.6551 19.1622 71.2884 69.7051 51.4297C109.906 35.6366 113.994 13.9283 113.994 13.9283C113.994 13.9283 118.653 14.1061 122.09 17.7551C126.243 22.1623 121.132 30.6629 121.132 30.6629C121.132 30.6629 110.275 52.0684 77.7002 66.2342C36.8372 84.0073 3.56072 80.5305 0.413944 69.3834C-0.881954 64.8151 1.27883 60.6551 1.27883 60.6551Z" fill="#A812CC"/>
<path d="M4.36481 65.2866L2.45703 68.3925C2.45703 68.3925 10.0459 71.772 19.0014 71.2193C41.1142 69.7962 59.9186 63.9796 66.6254 61.4623C71.0927 59.8051 75.418 57.8009 79.56 55.4688L82.7499 48.3396C82.7499 48.3396 74.048 53.7472 64.433 57.0797C53.7669 60.7797 35.3119 66.1791 19.379 67.0274C9.95852 67.511 4.36481 65.2866 4.36481 65.2866Z" fill="#C318ED"/>
</svg>
