<svg width="184" height="184" viewBox="0 0 184 184" fill="none" xmlns="http://www.w3.org/2000/svg">
<path opacity="0.1" d="M125.785 124.509C147.621 102.673 147.621 67.2709 125.785 45.4355C103.95 23.6 68.5477 23.6 46.7123 45.4354C24.8769 67.2709 24.8769 102.673 46.7123 124.509C68.5478 146.344 103.95 146.344 125.785 124.509Z" fill="#9CE8E6"/>
<path opacity="0.1" d="M137.965 137.965C163.364 112.566 163.364 71.387 137.965 45.9883C112.566 20.5897 71.387 20.5897 45.9883 45.9883C20.5897 71.387 20.5897 112.566 45.9883 137.965C71.387 163.364 112.566 163.364 137.965 137.965Z" fill="#9CE8E6"/>
<path d="M91.7625 139.529C118.007 139.529 139.283 118.254 139.283 92.0091C139.283 65.7643 118.007 44.4888 91.7625 44.4888C65.5177 44.4888 44.2422 65.7643 44.2422 92.0091C44.2422 118.254 65.5177 139.529 91.7625 139.529Z" fill="#7D0D98"/>
<path d="M125.846 104.321C128.072 101.411 132.691 94.0598 136.724 93.3387C137.892 93.1306 138.713 93.1905 139.246 93.4613C139.269 92.8912 139.283 92.304 139.283 91.7197C139.292 84.4407 137.662 77.2549 134.514 70.7069C128.047 72.8589 118.247 72.5026 114.479 77.3397C111.762 80.837 112.222 85.2665 109.372 88.9406C105.963 93.3273 100.997 95.0375 96.3692 97.6997C93.8832 99.1249 83.389 103.762 83.5442 106.924C83.8264 112.599 95.0148 109.235 97.6814 107.733C103.345 104.543 117.49 82.419 123.924 84.4199C136.247 88.2451 114.087 104.766 110.504 106.892C101.084 112.479 90.7172 117.51 79.7461 115.973C70.2479 114.642 61.0432 115.349 55.7129 123.43C60.1119 128.504 65.5127 132.592 71.5685 135.433C73.014 134.807 74.4159 134.083 75.7645 133.266C86.9106 126.329 100.543 125.337 111.74 117.895C117.304 114.215 121.884 109.5 125.846 104.321Z" fill="#BE2AB2"/>
<path d="M68.3666 97.8356C77.3753 93.7183 88.1813 96.8541 97.0799 92.2109C105.852 87.6267 106.738 75.8231 113.54 69.0622C115.49 67.1272 121.75 62.8299 127.813 60.251C125.594 57.7489 123.116 55.4865 120.421 53.5013C120.046 53.5462 119.674 53.5941 119.312 53.6447C112.694 54.5812 106.568 56.9324 101.256 61.4237C95.7877 66.0332 93.2118 73.3454 87.3264 77.3784C78.1287 83.6922 65.2039 79.6283 57.6002 88.9344C53.5064 93.9405 51.1251 100.516 47.0482 105.719C46.9354 105.865 46.8168 106 46.7012 106.152C47.5817 108.909 48.715 111.58 50.0868 114.131C50.2787 114.046 50.4734 113.965 50.6652 113.877C58.4551 110.323 60.6304 101.371 68.3666 97.8356Z" fill="#BE2AB2"/>
<path d="M124.502 115.296C116.663 120.179 108.544 126.278 100.001 131.066C94.0421 134.411 87.9049 136.182 81.9316 138.466C88.3489 139.84 94.9817 139.883 101.416 138.591C107.851 137.298 113.949 134.699 119.33 130.955C124.712 127.211 129.261 122.403 132.694 116.829C136.127 111.256 138.37 105.039 139.284 98.5636C136.01 104.508 127.08 113.688 124.502 115.296Z" fill="#BE2AB2"/>
<path d="M46.3369 89.5603C49.811 84.4641 50.3623 78.6822 54.4838 73.712C64.7112 61.3758 79.5775 66.889 91.6763 57.6761C96.7844 53.7861 100.117 49.4287 104.052 46.0088C96.9898 44.1925 89.6012 44.0012 82.4526 45.4496C75.304 46.8981 68.5853 49.9477 62.8116 54.3648C57.0379 58.7819 52.3624 64.4492 49.1436 70.9322C45.9248 77.4152 44.2482 84.5417 44.2422 91.7656C44.2422 91.8467 44.2422 91.9279 44.2422 92.0091C45.0202 91.2631 45.7218 90.4429 46.3369 89.5603Z" fill="#BE2AB2"/>
<path opacity="0.3" d="M91.814 138.71C103.364 138.685 114.51 134.503 123.173 126.946C131.836 119.388 137.424 108.971 138.895 97.6371C140.366 86.3034 137.62 74.8272 131.168 65.3493C124.716 55.8715 115 49.0394 103.832 46.1274C103.55 47.882 103.815 49.9736 104.839 52.4023C108.659 61.4399 116.64 68.723 120.657 77.6465C129.083 96.3596 126.893 118.309 104.048 124.241C94.7868 126.65 83.4082 125.152 75.8216 119.507C67.0949 113.02 68.5503 102.927 70.1915 93.4381C71.8327 84.0021 79.5234 69.0405 74.5295 59.5516C73.2036 57.045 68.1449 51.5528 62.4247 54.6554C54.6451 60.7006 48.9645 68.9954 46.1738 78.3849C43.3832 87.7744 43.6214 97.7911 46.8553 107.04C50.0893 116.29 56.158 124.311 64.2164 129.987C72.2748 135.664 81.9218 138.713 91.814 138.71Z" fill="#9CE8E6"/>
<path opacity="0.3" d="M66.7095 62.7846C58.9686 57.0816 50.0712 75.2629 49.9886 82.4106C49.9384 86.5626 49.965 91.7196 52.8354 95.1689C56.0097 98.9849 61.6148 95.922 63.3229 92.2488C65.7596 87.0217 61.3493 80.476 64.258 75.6913C67.6005 70.1899 69.3794 64.7444 66.7095 62.7846Z" fill="#9CE8E6"/>
</svg>
