<svg width="76" height="76" viewBox="0 0 76 76" fill="none" xmlns="http://www.w3.org/2000/svg">
<path d="M38 42.3225C34.7042 42.3264 31.5089 41.1878 28.9583 39.1006C26.4077 37.0133 24.6594 34.1064 24.0113 30.875C23.9596 30.5346 23.9826 30.1871 24.0786 29.8564C24.1745 29.5258 24.3413 29.22 24.5672 28.9602C24.7931 28.7004 25.0728 28.4928 25.3869 28.3518C25.701 28.2108 26.042 28.1398 26.3863 28.1437C26.9521 28.1355 27.5022 28.3296 27.9376 28.691C28.3731 29.0524 28.6651 29.5574 28.7613 30.115C29.2086 32.2499 30.3769 34.1659 32.0701 35.5411C33.7633 36.9163 35.8781 37.667 38.0594 37.667C40.2407 37.667 42.3555 36.9163 44.0487 35.5411C45.7419 34.1659 46.9102 32.2499 47.3575 30.115C47.4537 29.5574 47.7457 29.0524 48.1812 28.691C48.6166 28.3296 49.1667 28.1355 49.7325 28.1437C50.0768 28.1398 50.4178 28.2108 50.7319 28.3518C51.046 28.4928 51.3257 28.7004 51.5516 28.9602C51.7775 29.22 51.9442 29.5258 52.0402 29.8564C52.1362 30.1871 52.1592 30.5346 52.1075 30.875C51.4555 34.1265 49.6898 37.0489 47.1146 39.1385C44.5395 41.2281 41.3162 42.3541 38 42.3225Z" fill="#35924A"/>
<path d="M59.1374 73.625H16.8624C15.896 73.6262 14.9395 73.4308 14.0509 73.0507C13.1624 72.6705 12.3605 72.1136 11.694 71.4138C11.0275 70.714 10.5104 69.8859 10.174 68.9799C9.83765 68.0739 9.68911 67.109 9.73743 66.1438L11.6612 25.1988C11.7408 23.3631 12.5265 21.6292 13.8541 20.3591C15.1818 19.0889 16.9488 18.3808 18.7862 18.3825H57.2137C59.0511 18.3808 60.8181 19.0889 62.1457 20.3591C63.4734 21.6292 64.2591 23.3631 64.3387 25.1988L66.2624 66.1438C66.3107 67.109 66.1622 68.0739 65.8258 68.9799C65.4895 69.8859 64.9723 70.714 64.3058 71.4138C63.6393 72.1136 62.8374 72.6705 61.9489 73.0507C61.0604 73.4308 60.1038 73.6262 59.1374 73.625ZM18.7862 23.1563C18.1563 23.1563 17.5522 23.4065 17.1068 23.8519C16.6614 24.2973 16.4112 24.9014 16.4112 25.5313L14.4874 66.3813C14.4713 66.703 14.5208 67.0246 14.633 67.3266C14.7451 67.6286 14.9175 67.9047 15.1396 68.1379C15.3618 68.3712 15.6291 68.5569 15.9253 68.6836C16.2214 68.8103 16.5403 68.8754 16.8624 68.875H59.1374C59.4596 68.8754 59.7784 68.8103 60.0746 68.6836C60.3708 68.5569 60.6381 68.3712 60.8602 68.1379C61.0824 67.9047 61.2548 67.6286 61.3669 67.3266C61.479 67.0246 61.5285 66.703 61.5124 66.3813L59.5887 25.4363C59.5887 24.8064 59.3385 24.2023 58.8931 23.7569C58.4477 23.3115 57.8436 23.0613 57.2137 23.0613L18.7862 23.1563Z" fill="#35924A"/>
<path d="M52.25 20.7812H47.5V16.625C47.5 14.1054 46.4991 11.6891 44.7175 9.90749C42.9359 8.12589 40.5196 7.125 38 7.125C35.4804 7.125 33.0641 8.12589 31.2825 9.90749C29.5009 11.6891 28.5 14.1054 28.5 16.625V20.7812H23.75V16.625C23.75 12.8457 25.2513 9.22112 27.9237 6.54873C30.5961 3.87633 34.2207 2.375 38 2.375C41.7793 2.375 45.4039 3.87633 48.0763 6.54873C50.7487 9.22112 52.25 12.8457 52.25 16.625V20.7812Z" fill="#35924A"/>
</svg>
