<svg width="20" height="21" viewBox="0 0 20 21" fill="none" xmlns="http://www.w3.org/2000/svg">
<path d="M1.60039 0.200195C1.28213 0.200195 0.976906 0.326623 0.751862 0.551667C0.526819 0.776711 0.400391 1.08194 0.400391 1.4002C0.400391 1.71845 0.526819 2.02368 0.751862 2.24872C0.976906 2.47377 1.28213 2.60019 1.60039 2.60019H3.06439L3.43039 4.06659C3.43403 4.08348 3.43803 4.10028 3.44239 4.11699L5.07199 10.633L4.00039 11.7034C2.48839 13.2154 3.55879 15.8002 5.69719 15.8002H16.0004C16.3186 15.8002 16.6239 15.6738 16.8489 15.4487C17.074 15.2237 17.2004 14.9185 17.2004 14.6002C17.2004 14.2819 17.074 13.9767 16.8489 13.7517C16.6239 13.5266 16.3186 13.4002 16.0004 13.4002H5.69719L6.89719 12.2002H14.8004C15.0232 12.2001 15.2415 12.1379 15.431 12.0207C15.6205 11.9035 15.7736 11.7359 15.8732 11.5366L19.4732 4.33659C19.5646 4.15369 19.6077 3.95046 19.5985 3.7462C19.5893 3.54194 19.5281 3.34342 19.4206 3.16947C19.3132 2.99552 19.163 2.85192 18.9845 2.75229C18.8059 2.65266 18.6049 2.6003 18.4004 2.60019H5.53639L5.16439 1.1086C5.09938 0.849099 4.94953 0.618766 4.73864 0.454182C4.52775 0.289598 4.2679 0.200202 4.00039 0.200195H1.60039ZM17.2004 18.8002C17.2004 19.2776 17.0107 19.7354 16.6732 20.073C16.3356 20.4105 15.8778 20.6002 15.4004 20.6002C14.923 20.6002 14.4652 20.4105 14.1276 20.073C13.79 19.7354 13.6004 19.2776 13.6004 18.8002C13.6004 18.3228 13.79 17.865 14.1276 17.5274C14.4652 17.1898 14.923 17.0002 15.4004 17.0002C15.8778 17.0002 16.3356 17.1898 16.6732 17.5274C17.0107 17.865 17.2004 18.3228 17.2004 18.8002ZM5.80039 20.6002C6.27778 20.6002 6.73562 20.4105 7.07318 20.073C7.41075 19.7354 7.60039 19.2776 7.60039 18.8002C7.60039 18.3228 7.41075 17.865 7.07318 17.5274C6.73562 17.1898 6.27778 17.0002 5.80039 17.0002C5.323 17.0002 4.86516 17.1898 4.5276 17.5274C4.19003 17.865 4.00039 18.3228 4.00039 18.8002C4.00039 19.2776 4.19003 19.7354 4.5276 20.073C4.86516 20.4105 5.323 20.6002 5.80039 20.6002Z" fill="white"/>
</svg>
