<svg xmlns="http://www.w3.org/2000/svg" width="36" height="36" viewBox="0 0 36 36" fill="none">
<path d="M29.25 14.625V16.875H1.125V14.625C1.125 12.7689 2.64331 11.25 4.5 11.25H25.875C27.7317 11.25 29.25 12.7689 29.25 14.625ZM29.25 19.125V28.125C29.25 29.9811 27.7317 31.5 25.875 31.5H4.5C2.64331 31.5 1.125 29.9811 1.125 28.125V19.125H29.25ZM12.375 24.75H5.625V27H12.375V24.75ZM31.5 4.5H10.125C8.26831 4.5 6.75 6.01886 6.75 7.875V9H25.875C28.9797 9 31.5 11.5203 31.5 14.625V24.75C33.3567 24.75 34.875 23.2311 34.875 21.375V7.875C34.875 6.01886 33.3567 4.5 31.5 4.5Z" fill="white"/>
</svg>