<svg width="32" height="32" viewBox="0 0 32 32" fill="none" xmlns="http://www.w3.org/2000/svg">
<rect width="32" height="32" rx="16" fill="#225AEE" fill-opacity="0.2"/>
<path fill-rule="evenodd" clip-rule="evenodd" d="M15.3998 11.2002C15.2884 11.2003 15.1792 11.2313 15.0845 11.2899C14.9898 11.3485 14.9132 11.4323 14.8634 11.532L14.429 12.4002H12.3998C12.2407 12.4002 12.0881 12.4634 11.9755 12.5759C11.863 12.6885 11.7998 12.8411 11.7998 13.0002C11.7998 13.1593 11.863 13.3119 11.9755 13.4245C12.0881 13.537 12.2407 13.6002 12.3998 13.6002V19.6002C12.3998 19.9185 12.5262 20.2237 12.7513 20.4487C12.9763 20.6738 13.2815 20.8002 13.5998 20.8002H18.3998C18.7181 20.8002 19.0233 20.6738 19.2483 20.4487C19.4734 20.2237 19.5998 19.9185 19.5998 19.6002V13.6002C19.7589 13.6002 19.9115 13.537 20.0241 13.4245C20.1366 13.3119 20.1998 13.1593 20.1998 13.0002C20.1998 12.8411 20.1366 12.6885 20.0241 12.5759C19.9115 12.4634 19.7589 12.4002 19.5998 12.4002H17.5706L17.1362 11.532C17.0864 11.4323 17.0099 11.3485 16.9151 11.2899C16.8204 11.2313 16.7112 11.2003 16.5998 11.2002H15.3998ZM14.1998 14.8002C14.1998 14.6411 14.263 14.4885 14.3755 14.3759C14.4881 14.2634 14.6407 14.2002 14.7998 14.2002C14.9589 14.2002 15.1115 14.2634 15.2241 14.3759C15.3366 14.4885 15.3998 14.6411 15.3998 14.8002V18.4002C15.3998 18.5593 15.3366 18.7119 15.2241 18.8245C15.1115 18.937 14.9589 19.0002 14.7998 19.0002C14.6407 19.0002 14.4881 18.937 14.3755 18.8245C14.263 18.7119 14.1998 18.5593 14.1998 18.4002V14.8002ZM17.1998 14.2002C17.0407 14.2002 16.8881 14.2634 16.7755 14.3759C16.663 14.4885 16.5998 14.6411 16.5998 14.8002V18.4002C16.5998 18.5593 16.663 18.7119 16.7755 18.8245C16.8881 18.937 17.0407 19.0002 17.1998 19.0002C17.3589 19.0002 17.5115 18.937 17.6241 18.8245C17.7366 18.7119 17.7998 18.5593 17.7998 18.4002V14.8002C17.7998 14.6411 17.7366 14.4885 17.6241 14.3759C17.5115 14.2634 17.3589 14.2002 17.1998 14.2002Z" fill="white"/>
<rect x="1" y="1" width="30" height="30" rx="15" stroke="#225AEE" stroke-opacity="0.4" stroke-width="2"/>
</svg>
