<svg width="24" height="20" viewBox="0 0 24 20" fill="none" xmlns="http://www.w3.org/2000/svg">
<path d="M20.3175 2.36988C18.7615 1.65572 17.1195 1.14647 15.4325 0.85488C15.4171 0.851883 15.4011 0.853852 15.3869 0.860501C15.3728 0.867151 15.361 0.878139 15.3535 0.89188C15.1435 1.26688 14.9095 1.75588 14.7455 2.14188C12.9269 1.86566 11.0771 1.86566 9.25848 2.14188C9.07596 1.71418 8.86998 1.29688 8.64148 0.89188C8.6336 0.878447 8.62183 0.867719 8.60773 0.861114C8.59362 0.854508 8.57785 0.852334 8.56248 0.85488C6.87533 1.14586 5.23321 1.65514 3.67748 2.36988C3.66431 2.3754 3.65314 2.38483 3.64548 2.39688C0.533481 7.04588 -0.319519 11.5799 0.0994806 16.0569C0.100498 16.068 0.103773 16.0788 0.109103 16.0886C0.114433 16.0984 0.121708 16.107 0.130481 16.1139C1.94208 17.4561 3.96859 18.4807 6.12348 19.1439C6.13867 19.1483 6.15484 19.148 6.16984 19.143C6.18484 19.138 6.19797 19.1285 6.20748 19.1159C6.67075 18.4864 7.08083 17.8194 7.43348 17.1219C7.4384 17.1123 7.44123 17.1019 7.44181 17.0911C7.44238 17.0804 7.44067 17.0697 7.4368 17.0597C7.43292 17.0497 7.42697 17.0406 7.41933 17.033C7.41169 17.0255 7.40254 17.0196 7.39248 17.0159C6.7459 16.7685 6.11994 16.4702 5.52048 16.1239C5.50949 16.1175 5.50024 16.1086 5.49356 16.0978C5.48688 16.087 5.48297 16.0747 5.48217 16.062C5.48138 16.0494 5.48373 16.0367 5.48902 16.0251C5.49431 16.0136 5.50237 16.0036 5.51248 15.9959C5.63872 15.9014 5.76275 15.8041 5.88448 15.7039C5.89513 15.6952 5.90797 15.6897 5.92156 15.688C5.93516 15.6862 5.94898 15.6883 5.96148 15.6939C9.88948 17.4869 14.1415 17.4869 18.0235 15.6939C18.0361 15.688 18.0501 15.6859 18.0639 15.6877C18.0777 15.6894 18.0907 15.6951 18.1015 15.7039C18.2215 15.8019 18.3475 15.9019 18.4745 15.9959C18.4845 16.0034 18.4925 16.0133 18.4978 16.0246C18.5031 16.036 18.5056 16.0485 18.505 16.061C18.5044 16.0735 18.5008 16.0857 18.4944 16.0964C18.488 16.1072 18.4791 16.1163 18.4685 16.1229C17.8704 16.4724 17.2438 16.7708 16.5955 17.0149C16.5854 17.0187 16.5762 17.0247 16.5686 17.0323C16.5609 17.04 16.555 17.0491 16.5511 17.0592C16.5472 17.0693 16.5455 17.0801 16.5461 17.0909C16.5467 17.1017 16.5496 17.1123 16.5545 17.1219C16.9145 17.8199 17.3265 18.4839 17.7795 19.1149C17.7888 19.1277 17.8019 19.1374 17.817 19.1424C17.832 19.1474 17.8483 19.1476 17.8635 19.1429C20.022 18.4817 22.0518 17.457 23.8655 16.1129C23.8743 16.1066 23.8817 16.0986 23.8872 16.0893C23.8927 16.08 23.8962 16.0696 23.8975 16.0589C24.3975 10.8819 23.0595 6.38488 20.3485 2.39888C20.3421 2.38544 20.3311 2.37477 20.3175 2.36888V2.36988ZM8.02048 13.3299C6.83748 13.3299 5.86348 12.2449 5.86348 10.9109C5.86348 9.57788 6.81948 8.49188 8.02048 8.49188C9.23048 8.49188 10.1965 9.58788 10.1775 10.9119C10.1775 12.2449 9.22148 13.3299 8.02048 13.3299ZM15.9955 13.3299C14.8125 13.3299 13.8385 12.2449 13.8385 10.9109C13.8385 9.57788 14.7935 8.49188 15.9955 8.49188C17.2055 8.49188 18.1715 9.58788 18.1525 10.9119C18.1525 12.2449 17.2065 13.3299 15.9955 13.3299Z" fill="#857E9A"/>
</svg>
