<svg width="32" height="32" viewBox="0 0 32 32" fill="none" xmlns="http://www.w3.org/2000/svg">
<g clip-path="url(#clip0_3782_2114)">
<path d="M30.3586 3.18911C29.4779 3.18911 28.764 2.4752 28.764 1.59455C28.764 0.713906 29.4779 0 30.3586 0C31.2392 0 31.9531 0.713906 31.9531 1.59455C31.9531 2.4752 31.2392 3.18911 30.3586 3.18911Z" fill="white"/>
<path d="M25.6242 8.02114C24.7435 8.02114 24.0296 7.30723 24.0296 6.42659C24.0296 5.54594 24.7435 4.83203 25.6242 4.83203C26.5048 4.83203 27.2188 5.54594 27.2188 6.42659C27.2188 7.30723 26.5048 8.02114 25.6242 8.02114Z" fill="white"/>
<path d="M25.6242 3.18911C24.7435 3.18911 24.0296 2.4752 24.0296 1.59455C24.0296 0.713906 24.7435 0 25.6242 0C26.5048 0 27.2188 0.713906 27.2188 1.59455C27.2188 2.4752 26.5048 3.18911 25.6242 3.18911Z" fill="white"/>
<path d="M20.7922 8.02114C19.9115 8.02114 19.1976 7.30723 19.1976 6.42659C19.1976 5.54594 19.9115 4.83203 20.7922 4.83203C21.6728 4.83203 22.3867 5.54594 22.3867 6.42659C22.3867 7.30723 21.6728 8.02114 20.7922 8.02114Z" fill="white"/>
<path d="M20.7922 12.7565C19.9115 12.7565 19.1976 12.0426 19.1976 11.1619C19.1976 10.2813 19.9115 9.56738 20.7922 9.56738C21.6728 9.56738 22.3867 10.2813 22.3867 11.1619C22.3867 12.0426 21.6728 12.7565 20.7922 12.7565Z" fill="white"/>
<path d="M20.7922 3.18911C19.9115 3.18911 19.1976 2.4752 19.1976 1.59455C19.1976 0.713906 19.9115 0 20.7922 0C21.6728 0 22.3867 0.713906 22.3867 1.59455C22.3867 2.4752 21.6728 3.18911 20.7922 3.18911Z" fill="white"/>
<path d="M16.0539 8.02114C15.1732 8.02114 14.4593 7.30723 14.4593 6.42659C14.4593 5.54594 15.1732 4.83203 16.0539 4.83203C16.9345 4.83203 17.6484 5.54594 17.6484 6.42659C17.6484 7.30723 16.9345 8.02114 16.0539 8.02114Z" fill="white"/>
<path d="M16.0539 12.7565C15.1732 12.7565 14.4593 12.0426 14.4593 11.1619C14.4593 10.2813 15.1732 9.56738 16.0539 9.56738C16.9345 9.56738 17.6484 10.2813 17.6484 11.1619C17.6484 12.0426 16.9345 12.7565 16.0539 12.7565Z" fill="white"/>
<path d="M16.0539 3.18911C15.1732 3.18911 14.4593 2.4752 14.4593 1.59455C14.4593 0.713906 15.1732 0 16.0539 0C16.9345 0 17.6484 0.713906 17.6484 1.59455C17.6484 2.4752 16.9345 3.18911 16.0539 3.18911Z" fill="white"/>
<path d="M11.3195 8.02114C10.4389 8.02114 9.72495 7.30723 9.72495 6.42659C9.72495 5.54594 10.4389 4.83203 11.3195 4.83203C12.2002 4.83203 12.9141 5.54594 12.9141 6.42659C12.9141 7.30723 12.2002 8.02114 11.3195 8.02114Z" fill="white"/>
<path d="M11.3195 12.7565C10.4389 12.7565 9.72495 12.0426 9.72495 11.1619C9.72495 10.2813 10.4389 9.56738 11.3195 9.56738C12.2002 9.56738 12.9141 10.2813 12.9141 11.1619C12.9141 12.0426 12.2002 12.7565 11.3195 12.7565Z" fill="white"/>
<path d="M16.0539 17.4918C15.1732 17.4918 14.4593 16.7779 14.4593 15.8973C14.4593 15.0166 15.1732 14.3027 16.0539 14.3027C16.9345 14.3027 17.6484 15.0166 17.6484 15.8973C17.6484 16.7779 16.9345 17.4918 16.0539 17.4918Z" fill="white"/>
<path d="M11.3195 17.4918C10.4389 17.4918 9.72495 16.7779 9.72495 15.8973C9.72495 15.0166 10.4389 14.3027 11.3195 14.3027C12.2002 14.3027 12.9141 15.0166 12.9141 15.8973C12.9141 16.7779 12.2002 17.4918 11.3195 17.4918Z" fill="white"/>
<path d="M20.7921 22.3241C19.9114 22.3241 19.1974 21.6101 19.1974 20.7294C19.1974 19.8487 19.9114 19.1348 20.7921 19.1348C21.6728 19.1348 22.3867 19.8487 22.3867 20.7294C22.3867 21.6101 21.6728 22.3241 20.7921 22.3241Z" fill="white"/>
<path d="M16.0538 22.3241C15.1731 22.3241 14.4591 21.6101 14.4591 20.7294C14.4591 19.8487 15.1731 19.1348 16.0538 19.1348C16.9345 19.1348 17.6484 19.8487 17.6484 20.7294C17.6484 21.6101 16.9345 22.3241 16.0538 22.3241Z" fill="white"/>
<path d="M11.3194 22.3241C10.4387 22.3241 9.72474 21.6101 9.72474 20.7294C9.72474 19.8487 10.4387 19.1348 11.3194 19.1348C12.2001 19.1348 12.9141 19.8487 12.9141 20.7294C12.9141 21.6101 12.2001 22.3241 11.3194 22.3241Z" fill="white"/>
<path d="M25.6242 27.0651C24.7435 27.0651 24.0296 26.3512 24.0296 25.4705C24.0296 24.5899 24.7435 23.876 25.6242 23.876C26.5048 23.876 27.2188 24.5899 27.2188 25.4705C27.2188 26.3512 26.5048 27.0651 25.6242 27.0651Z" fill="white"/>
<path d="M20.7922 27.0651C19.9115 27.0651 19.1976 26.3512 19.1976 25.4705C19.1976 24.5899 19.9115 23.876 20.7922 23.876C21.6728 23.876 22.3867 24.5899 22.3867 25.4705C22.3867 26.3512 21.6728 27.0651 20.7922 27.0651Z" fill="white"/>
<path d="M16.0539 27.0651C15.1732 27.0651 14.4593 26.3512 14.4593 25.4705C14.4593 24.5899 15.1732 23.876 16.0539 23.876C16.9345 23.876 17.6484 24.5899 17.6484 25.4705C17.6484 26.3512 16.9345 27.0651 16.0539 27.0651Z" fill="white"/>
<path d="M11.3195 27.0651C10.4389 27.0651 9.72495 26.3512 9.72495 25.4705C9.72495 24.5899 10.4389 23.876 11.3195 23.876C12.2002 23.876 12.9141 24.5899 12.9141 25.4705C12.9141 26.3512 12.2002 27.0651 11.3195 27.0651Z" fill="white"/>
<path d="M6.38591 12.7565C5.50527 12.7565 4.79136 12.0426 4.79136 11.1619C4.79136 10.2813 5.50527 9.56738 6.38591 9.56738C7.26656 9.56738 7.98047 10.2813 7.98047 11.1619C7.98047 12.0426 7.26656 12.7565 6.38591 12.7565Z" fill="white"/>
<path d="M6.38591 17.4918C5.50527 17.4918 4.79136 16.7779 4.79136 15.8973C4.79136 15.0166 5.50527 14.3027 6.38591 14.3027C7.26656 14.3027 7.98047 15.0166 7.98047 15.8973C7.98047 16.7779 7.26656 17.4918 6.38591 17.4918Z" fill="white"/>
<path d="M6.38581 22.3241C5.5051 22.3241 4.79115 21.6101 4.79115 20.7294C4.79115 19.8487 5.5051 19.1348 6.38581 19.1348C7.26651 19.1348 7.98047 19.8487 7.98047 20.7294C7.98047 21.6101 7.26651 22.3241 6.38581 22.3241Z" fill="white"/>
<path d="M30.3585 32C29.4778 32 28.7638 31.286 28.7638 30.4053C28.7638 29.5246 29.4778 28.8107 30.3585 28.8107C31.2392 28.8107 31.9531 29.5246 31.9531 30.4053C31.9531 31.286 31.2392 32 30.3585 32Z" fill="white"/>
<path d="M25.6241 31.9999C24.7434 31.9999 24.0294 31.2859 24.0294 30.4052C24.0294 29.5245 24.7434 28.8105 25.6241 28.8105C26.5048 28.8105 27.2188 29.5245 27.2188 30.4052C27.2188 31.2859 26.5048 31.9999 25.6241 31.9999Z" fill="white"/>
<path d="M20.7921 31.9999C19.9114 31.9999 19.1974 31.2859 19.1974 30.4052C19.1974 29.5245 19.9114 28.8105 20.7921 28.8105C21.6728 28.8105 22.3867 29.5245 22.3867 30.4052C22.3867 31.2859 21.6728 31.9999 20.7921 31.9999Z" fill="white"/>
<path d="M16.0538 31.9999C15.1731 31.9999 14.4591 31.2859 14.4591 30.4052C14.4591 29.5245 15.1731 28.8105 16.0538 28.8105C16.9345 28.8105 17.6484 29.5245 17.6484 30.4052C17.6484 31.2859 16.9345 31.9999 16.0538 31.9999Z" fill="white"/>
<path d="M1.64373 17.4918C0.763077 17.4918 0.0491729 16.7779 0.0491729 15.8973C0.0491729 15.0166 0.763077 14.3027 1.64373 14.3027C2.52437 14.3027 3.23828 15.0166 3.23828 15.8973C3.23828 16.7779 2.52437 17.4918 1.64373 17.4918Z" fill="white"/>
</g>
<defs>
<clipPath id="clip0_3782_2114">
<rect width="32" height="32" fill="white" transform="matrix(-1 0 0 1 32 0)"/>
</clipPath>
</defs>
</svg>
