<svg width="32" height="32" viewBox="0 0 32 32" fill="none" xmlns="http://www.w3.org/2000/svg">
<g clip-path="url(#clip0_3782_2077)">
<path d="M1.64143 3.18911C2.52208 3.18911 3.23598 2.4752 3.23598 1.59455C3.23598 0.713906 2.52208 0 1.64143 0C0.760781 0 0.046875 0.713906 0.046875 1.59455C0.046875 2.4752 0.760781 3.18911 1.64143 3.18911Z" fill="white"/>
<path d="M6.3758 8.02114C7.25645 8.02114 7.97036 7.30723 7.97036 6.42659C7.97036 5.54594 7.25645 4.83203 6.3758 4.83203C5.49516 4.83203 4.78125 5.54594 4.78125 6.42659C4.78125 7.30723 5.49516 8.02114 6.3758 8.02114Z" fill="white"/>
<path d="M6.3758 3.18911C7.25645 3.18911 7.97036 2.4752 7.97036 1.59455C7.97036 0.713906 7.25645 0 6.3758 0C5.49516 0 4.78125 0.713906 4.78125 1.59455C4.78125 2.4752 5.49516 3.18911 6.3758 3.18911Z" fill="white"/>
<path d="M11.2078 8.02114C12.0885 8.02114 12.8024 7.30723 12.8024 6.42659C12.8024 5.54594 12.0885 4.83203 11.2078 4.83203C10.3272 4.83203 9.61328 5.54594 9.61328 6.42659C9.61328 7.30723 10.3272 8.02114 11.2078 8.02114Z" fill="white"/>
<path d="M11.2078 12.7565C12.0885 12.7565 12.8024 12.0426 12.8024 11.1619C12.8024 10.2813 12.0885 9.56738 11.2078 9.56738C10.3272 9.56738 9.61328 10.2813 9.61328 11.1619C9.61328 12.0426 10.3272 12.7565 11.2078 12.7565Z" fill="white"/>
<path d="M11.2078 3.18911C12.0885 3.18911 12.8024 2.4752 12.8024 1.59455C12.8024 0.713906 12.0885 0 11.2078 0C10.3272 0 9.61328 0.713906 9.61328 1.59455C9.61328 2.4752 10.3272 3.18911 11.2078 3.18911Z" fill="white"/>
<path d="M15.9461 8.02114C16.8268 8.02114 17.5407 7.30723 17.5407 6.42659C17.5407 5.54594 16.8268 4.83203 15.9461 4.83203C15.0655 4.83203 14.3516 5.54594 14.3516 6.42659C14.3516 7.30723 15.0655 8.02114 15.9461 8.02114Z" fill="white"/>
<path d="M15.9461 12.7565C16.8268 12.7565 17.5407 12.0426 17.5407 11.1619C17.5407 10.2813 16.8268 9.56738 15.9461 9.56738C15.0655 9.56738 14.3516 10.2813 14.3516 11.1619C14.3516 12.0426 15.0655 12.7565 15.9461 12.7565Z" fill="white"/>
<path d="M15.9461 3.18911C16.8268 3.18911 17.5407 2.4752 17.5407 1.59455C17.5407 0.713906 16.8268 0 15.9461 0C15.0655 0 14.3516 0.713906 14.3516 1.59455C14.3516 2.4752 15.0655 3.18911 15.9461 3.18911Z" fill="white"/>
<path d="M20.6805 8.02114C21.5611 8.02114 22.275 7.30723 22.275 6.42659C22.275 5.54594 21.5611 4.83203 20.6805 4.83203C19.7998 4.83203 19.0859 5.54594 19.0859 6.42659C19.0859 7.30723 19.7998 8.02114 20.6805 8.02114Z" fill="white"/>
<path d="M20.6805 12.7565C21.5611 12.7565 22.275 12.0426 22.275 11.1619C22.275 10.2813 21.5611 9.56738 20.6805 9.56738C19.7998 9.56738 19.0859 10.2813 19.0859 11.1619C19.0859 12.0426 19.7998 12.7565 20.6805 12.7565Z" fill="white"/>
<path d="M15.9461 17.4918C16.8268 17.4918 17.5407 16.7779 17.5407 15.8973C17.5407 15.0166 16.8268 14.3027 15.9461 14.3027C15.0655 14.3027 14.3516 15.0166 14.3516 15.8973C14.3516 16.7779 15.0655 17.4918 15.9461 17.4918Z" fill="white"/>
<path d="M20.6805 17.4918C21.5611 17.4918 22.275 16.7779 22.275 15.8973C22.275 15.0166 21.5611 14.3027 20.6805 14.3027C19.7998 14.3027 19.0859 15.0166 19.0859 15.8973C19.0859 16.7779 19.7998 17.4918 20.6805 17.4918Z" fill="white"/>
<path d="M11.2079 22.3241C12.0886 22.3241 12.8026 21.6101 12.8026 20.7294C12.8026 19.8487 12.0886 19.1348 11.2079 19.1348C10.3272 19.1348 9.61328 19.8487 9.61328 20.7294C9.61328 21.6101 10.3272 22.3241 11.2079 22.3241Z" fill="white"/>
<path d="M15.9462 22.3241C16.8269 22.3241 17.5409 21.6101 17.5409 20.7294C17.5409 19.8487 16.8269 19.1348 15.9462 19.1348C15.0655 19.1348 14.3516 19.8487 14.3516 20.7294C14.3516 21.6101 15.0655 22.3241 15.9462 22.3241Z" fill="white"/>
<path d="M20.6806 22.3241C21.5613 22.3241 22.2753 21.6101 22.2753 20.7294C22.2753 19.8487 21.5613 19.1348 20.6806 19.1348C19.7999 19.1348 19.0859 19.8487 19.0859 20.7294C19.0859 21.6101 19.7999 22.3241 20.6806 22.3241Z" fill="white"/>
<path d="M6.3758 27.0651C7.25645 27.0651 7.97036 26.3512 7.97036 25.4705C7.97036 24.5899 7.25645 23.876 6.3758 23.876C5.49516 23.876 4.78125 24.5899 4.78125 25.4705C4.78125 26.3512 5.49516 27.0651 6.3758 27.0651Z" fill="white"/>
<path d="M11.2078 27.0651C12.0885 27.0651 12.8024 26.3512 12.8024 25.4705C12.8024 24.5899 12.0885 23.876 11.2078 23.876C10.3272 23.876 9.61328 24.5899 9.61328 25.4705C9.61328 26.3512 10.3272 27.0651 11.2078 27.0651Z" fill="white"/>
<path d="M15.9461 27.0651C16.8268 27.0651 17.5407 26.3512 17.5407 25.4705C17.5407 24.5899 16.8268 23.876 15.9461 23.876C15.0655 23.876 14.3516 24.5899 14.3516 25.4705C14.3516 26.3512 15.0655 27.0651 15.9461 27.0651Z" fill="white"/>
<path d="M20.6805 27.0651C21.5611 27.0651 22.275 26.3512 22.275 25.4705C22.275 24.5899 21.5611 23.876 20.6805 23.876C19.7998 23.876 19.0859 24.5899 19.0859 25.4705C19.0859 26.3512 19.7998 27.0651 20.6805 27.0651Z" fill="white"/>
<path d="M25.6141 12.7565C26.4947 12.7565 27.2086 12.0426 27.2086 11.1619C27.2086 10.2813 26.4947 9.56738 25.6141 9.56738C24.7334 9.56738 24.0195 10.2813 24.0195 11.1619C24.0195 12.0426 24.7334 12.7565 25.6141 12.7565Z" fill="white"/>
<path d="M25.6141 17.4918C26.4947 17.4918 27.2086 16.7779 27.2086 15.8973C27.2086 15.0166 26.4947 14.3027 25.6141 14.3027C24.7334 14.3027 24.0195 15.0166 24.0195 15.8973C24.0195 16.7779 24.7334 17.4918 25.6141 17.4918Z" fill="white"/>
<path d="M25.6142 22.3241C26.4949 22.3241 27.2089 21.6101 27.2089 20.7294C27.2089 19.8487 26.4949 19.1348 25.6142 19.1348C24.7335 19.1348 24.0195 19.8487 24.0195 20.7294C24.0195 21.6101 24.7335 22.3241 25.6142 22.3241Z" fill="white"/>
<path d="M1.64154 32C2.52224 32 3.2362 31.286 3.2362 30.4053C3.2362 29.5246 2.52224 28.8107 1.64154 28.8107C0.760829 28.8107 0.046875 29.5246 0.046875 30.4053C0.046875 31.286 0.760829 32 1.64154 32Z" fill="white"/>
<path d="M6.37591 31.9999C7.25662 31.9999 7.97057 31.2859 7.97057 30.4052C7.97057 29.5245 7.25662 28.8105 6.37591 28.8105C5.4952 28.8105 4.78125 29.5245 4.78125 30.4052C4.78125 31.2859 5.4952 31.9999 6.37591 31.9999Z" fill="white"/>
<path d="M11.2079 31.9999C12.0886 31.9999 12.8026 31.2859 12.8026 30.4052C12.8026 29.5245 12.0886 28.8105 11.2079 28.8105C10.3272 28.8105 9.61328 29.5245 9.61328 30.4052C9.61328 31.2859 10.3272 31.9999 11.2079 31.9999Z" fill="white"/>
<path d="M15.9462 31.9999C16.8269 31.9999 17.5409 31.2859 17.5409 30.4052C17.5409 29.5245 16.8269 28.8105 15.9462 28.8105C15.0655 28.8105 14.3516 29.5245 14.3516 30.4052C14.3516 31.2859 15.0655 31.9999 15.9462 31.9999Z" fill="white"/>
<path d="M30.3563 17.4918C31.2369 17.4918 31.9508 16.7779 31.9508 15.8973C31.9508 15.0166 31.2369 14.3027 30.3563 14.3027C29.4756 14.3027 28.7617 15.0166 28.7617 15.8973C28.7617 16.7779 29.4756 17.4918 30.3563 17.4918Z" fill="white"/>
</g>
<defs>
<clipPath id="clip0_3782_2077">
<rect width="32" height="32" fill="white"/>
</clipPath>
</defs>
</svg>
