<svg width="40" height="40" viewBox="0 0 40 40" fill="none" xmlns="http://www.w3.org/2000/svg">
<path d="M4.95078 8.65039C4.51317 8.65039 4.09349 8.82423 3.78405 9.13366C3.47462 9.4431 3.30078 9.86278 3.30078 10.3004C3.30078 10.738 3.47462 11.1577 3.78405 11.4671C4.09349 11.7766 4.51317 11.9504 4.95078 11.9504H6.96378L7.46703 13.9667C7.47203 13.9899 7.47753 14.013 7.48353 14.036L9.72423 22.9955L8.25078 24.4673C6.17178 26.5463 7.64358 30.1004 10.5839 30.1004H24.7508C25.1884 30.1004 25.6081 29.9265 25.9175 29.6171C26.2269 29.3077 26.4008 28.888 26.4008 28.4504C26.4008 28.0128 26.2269 27.5931 25.9175 27.2837C25.6081 26.9742 25.1884 26.8004 24.7508 26.8004H10.5839L12.2339 25.1504H23.1008C23.4071 25.1502 23.7074 25.0648 23.9679 24.9036C24.2284 24.7425 24.4389 24.512 24.5759 24.2379L29.5259 14.3379C29.6516 14.0864 29.7109 13.807 29.6982 13.5262C29.6856 13.2453 29.6014 12.9723 29.4536 12.7331C29.3058 12.494 29.0994 12.2965 28.8539 12.1595C28.6084 12.0225 28.3319 11.9505 28.0508 11.9504H10.3628L9.85128 9.89944C9.7619 9.54263 9.55585 9.22592 9.26587 8.99962C8.9759 8.77332 8.61861 8.6504 8.25078 8.65039H4.95078ZM26.4008 34.2254C26.4008 34.8818 26.14 35.5113 25.6759 35.9755C25.2117 36.4396 24.5822 36.7004 23.9258 36.7004C23.2694 36.7004 22.6398 36.4396 22.1757 35.9755C21.7115 35.5113 21.4508 34.8818 21.4508 34.2254C21.4508 33.569 21.7115 32.9395 22.1757 32.4753C22.6398 32.0111 23.2694 31.7504 23.9258 31.7504C24.5822 31.7504 25.2117 32.0111 25.6759 32.4753C26.14 32.9395 26.4008 33.569 26.4008 34.2254ZM10.7258 36.7004C11.3822 36.7004 12.0117 36.4396 12.4759 35.9755C12.94 35.5113 13.2008 34.8818 13.2008 34.2254C13.2008 33.569 12.94 32.9395 12.4759 32.4753C12.0117 32.0111 11.3822 31.7504 10.7258 31.7504C10.0694 31.7504 9.43984 32.0111 8.97569 32.4753C8.51154 32.9395 8.25078 33.569 8.25078 34.2254C8.25078 34.8818 8.51154 35.5113 8.97569 35.9755C9.43984 36.4396 10.0694 36.7004 10.7258 36.7004Z" fill="white"/>
<circle cx="27.2885" cy="12.7299" r="10.7143" fill="white" stroke="#A237F5"/>
<path fill-rule="evenodd" clip-rule="evenodd" d="M27.2885 18.2305C26.8546 18.2305 26.5028 17.8787 26.5028 17.4448V8.01618C26.5028 7.58225 26.8546 7.23047 27.2885 7.23047C27.7224 7.23047 28.0742 7.58225 28.0742 8.01618V17.4448C28.0742 17.8787 27.7224 18.2305 27.2885 18.2305Z" fill="#A237F5"/>
<path fill-rule="evenodd" clip-rule="evenodd" d="M32.7891 12.7301C32.7891 13.164 32.4373 13.5158 32.0033 13.5158H22.5748C22.1408 13.5158 21.7891 13.164 21.7891 12.7301C21.7891 12.2961 22.1408 11.9443 22.5748 11.9443H32.0033C32.4373 11.9443 32.7891 12.2961 32.7891 12.7301Z" fill="#A237F5"/>
</svg>
