<svg width="24" height="24" viewBox="0 0 24 24" fill="none" xmlns="http://www.w3.org/2000/svg">
<path d="M13.5002 6.50092C13.5002 6.89872 13.3421 7.28024 13.0609 7.56153C12.7796 7.84282 12.3981 8.00084 12.0003 8.00084C11.6025 8.00084 11.221 7.84282 10.9398 7.56153C10.6585 7.28024 10.5005 6.89872 10.5005 6.50092C10.5005 6.10312 10.6585 5.72161 10.9398 5.44032C11.221 5.15903 11.6025 5.001 12.0003 5.001C12.3981 5.001 12.7796 5.15903 13.0609 5.44032C13.3421 5.72161 13.5002 6.10312 13.5002 6.50092ZM23.9991 19.0003V12.3406C24.0364 9.25822 22.9063 6.27583 20.8357 3.99222C18.7652 1.70862 15.9074 0.292885 12.8362 0.0292618C11.122 -0.0906742 9.40211 0.158995 7.79277 0.761376C6.18343 1.36376 4.72225 2.3048 3.50808 3.52083C2.29391 4.73686 1.35508 6.1995 0.755117 7.80981C0.155151 9.42011 -0.0919563 11.1405 0.030515 12.8546C0.472471 19.2083 6.08291 24 13.0832 24H18.9996C20.3251 23.9984 21.5958 23.4711 22.533 22.5339C23.4703 21.5966 23.9975 20.3258 23.9991 19.0003ZM12.7002 2.02516C15.2664 2.25218 17.6517 3.44199 19.3767 5.35554C21.1017 7.26908 22.0386 9.76457 21.9993 12.3406V19.0003C21.9993 19.7959 21.6833 20.5589 21.1207 21.1215C20.5582 21.6841 19.7952 22.0001 18.9996 22.0001H13.0832C7.04981 22.0001 2.40128 18.1003 2.02631 12.7166C1.92788 11.3452 2.11328 9.96833 2.57094 8.67187C3.02861 7.37542 3.74869 6.18727 4.68622 5.18166C5.62375 4.17606 6.75856 3.3746 8.01978 2.82736C9.28099 2.28013 10.6415 1.99887 12.0163 2.00116C12.2433 2.00116 12.4723 2.01016 12.7002 2.02516ZM14.0001 18.0003V12.0006C14.0001 11.4702 13.7894 10.9615 13.4144 10.5865C13.0393 10.2114 12.5307 10.0007 12.0003 10.0007H11.0004C10.7352 10.0007 10.4809 10.1061 10.2934 10.2936C10.1059 10.4811 10.0005 10.7355 10.0005 11.0007C10.0005 11.2659 10.1059 11.5202 10.2934 11.7078C10.4809 11.8953 10.7352 12.0006 11.0004 12.0006H12.0003V18.0003C12.0003 18.2655 12.1057 18.5199 12.2932 18.7074C12.4807 18.8949 12.735 19.0003 13.0002 19.0003C13.2654 19.0003 13.5197 18.8949 13.7072 18.7074C13.8948 18.5199 14.0001 18.2655 14.0001 18.0003Z" fill="white"/>
</svg>
