<svg width="22" height="22" viewBox="0 0 22 22" fill="none" xmlns="http://www.w3.org/2000/svg">
<path fill-rule="evenodd" clip-rule="evenodd" d="M21.7998 6.42677C21.7486 5.26528 21.5607 4.46678 21.2917 3.77486C21.0141 3.0404 20.5871 2.38285 20.0276 1.83622C19.481 1.28108 18.8191 0.849718 18.0931 0.576487C17.3972 0.307427 16.6029 0.119601 15.4414 0.0683911C14.2712 0.0128442 13.8998 0 10.9319 0C7.96407 0 7.59259 0.0128442 6.42677 0.0640541C5.26528 0.115264 4.46678 0.303256 3.77502 0.57215C3.0404 0.849718 2.38285 1.27675 1.83622 1.83622C1.28108 2.38285 0.849885 3.04474 0.576487 3.77069C0.307427 4.46678 0.119601 5.26095 0.0683911 6.42243C0.0128442 7.59259 0 7.96407 0 10.9319C0 13.8997 0.0128442 14.2712 0.0640542 15.437C0.115264 16.5985 0.303256 17.397 0.572317 18.089C0.849885 18.8234 1.28108 19.481 1.83622 20.0276C2.38285 20.5827 3.04474 21.0141 3.77069 21.2873C4.46678 21.5564 5.26095 21.7442 6.4226 21.7954C7.58825 21.8468 7.9599 21.8595 10.9277 21.8595C13.8956 21.8595 14.2671 21.8468 15.4329 21.7954C16.5944 21.7442 17.3929 21.5564 18.0846 21.2873C19.5537 20.7193 20.7152 19.5579 21.2832 18.089C21.5521 17.3929 21.74 16.5985 21.7913 15.437C21.8425 14.2712 21.8553 13.8997 21.8553 10.9319C21.8553 7.96407 21.851 7.59259 21.7998 6.42677ZM19.8313 15.3516C19.7842 16.4192 19.6049 16.9957 19.4554 17.38C19.0881 18.3323 18.3323 19.0881 17.38 19.4554C16.9957 19.6049 16.415 19.7842 15.3516 19.8311C14.1987 19.8825 13.8529 19.8952 10.9362 19.8952C8.01961 19.8952 7.66948 19.8825 6.52068 19.8311C5.45311 19.7842 4.87662 19.6049 4.4923 19.4554C4.0184 19.2803 3.58703 19.0027 3.2369 18.6398C2.87393 18.2853 2.59636 17.8583 2.42121 17.3844C2.27175 17 2.09244 16.4192 2.04556 15.356C1.99419 14.203 1.98151 13.857 1.98151 10.9404C1.98151 8.02378 1.99419 7.67365 2.04556 6.52502C2.09244 5.45745 2.27175 4.88096 2.42121 4.49663C2.59636 4.02257 2.87393 3.59137 3.24124 3.24107C3.59554 2.8781 4.02257 2.60053 4.49663 2.42555C4.88096 2.27609 5.46178 2.09677 6.52502 2.04973C7.67799 1.99852 8.02395 1.98568 10.9404 1.98568C13.8614 1.98568 14.2072 1.99852 15.356 2.04973C16.4236 2.09677 17 2.27609 17.3844 2.42555C17.8583 2.60053 18.2896 2.8781 18.6398 3.24107C19.0027 3.59554 19.2803 4.02257 19.4554 4.49663C19.6049 4.88096 19.7842 5.46162 19.8313 6.52502C19.8825 7.67799 19.8953 8.02378 19.8953 10.9404C19.8953 13.857 19.8825 14.1987 19.8313 15.3516ZM10.9325 5.31648C7.83241 5.31648 5.31711 7.83161 5.31711 10.9319C5.31711 14.0322 7.83241 16.5473 10.9325 16.5473C14.0328 16.5473 16.5479 14.0322 16.5479 10.9319C16.5479 7.83161 14.0328 5.31648 10.9325 5.31648ZM10.9325 14.5745C8.92133 14.5745 7.28995 12.9433 7.28995 10.9319C7.28995 8.92053 8.92133 7.28932 10.9325 7.28932C12.9439 7.28932 14.5751 8.92053 14.5751 10.9319C14.5751 12.9433 12.9439 14.5745 10.9325 14.5745ZM16.7704 6.40552C17.4945 6.40552 18.0815 5.81852 18.0815 5.09458C18.0815 4.37047 17.4945 3.78364 16.7704 3.78364C16.0464 3.78364 15.4594 4.37047 15.4594 5.09458C15.4594 5.81852 16.0464 6.40552 16.7704 6.40552Z" fill="#857E9A"/>
</svg>
