<svg width="24" height="19" viewBox="0 0 24 19" fill="none" xmlns="http://www.w3.org/2000/svg">
<path d="M22.0844 2.23273L24 0.401145V0H17.3656L12.6375 11.7669L7.25937 0H0.303125V0.401145L2.54063 3.09411C2.75938 3.29313 2.87188 3.58543 2.84375 3.87774V14.4599C2.9125 14.8424 2.79062 15.2311 2.52187 15.5079L0 18.5646V18.9596H7.14375V18.5584L4.625 15.511C4.49005 15.3746 4.38854 15.2091 4.32837 15.0274C4.26821 14.8456 4.25101 14.6525 4.27812 14.463V5.30818L10.55 18.9658H11.2781L16.6719 5.30818V16.1889C16.6719 16.475 16.6719 16.534 16.4844 16.7237L14.5438 18.5989V19H23.9562V18.5989L22.0844 16.7673C21.9219 16.6429 21.8375 16.4345 21.8719 16.2324V2.76759C21.8557 2.66767 21.8669 2.56524 21.9043 2.47112C21.9417 2.37699 22.0039 2.29463 22.0844 2.23273Z" fill="#857E9A"/>
</svg>
