<svg width="59" height="59" viewBox="0 0 59 59" fill="none" xmlns="http://www.w3.org/2000/svg">
<path fill-rule="evenodd" clip-rule="evenodd" d="M26.7658 38.6724L26.7658 22.5596L33.2109 22.5596L33.2109 38.6724L26.7658 38.6724Z" fill="white"/>
<path d="M42.8821 12.8903C42.8821 20.0094 37.1109 25.7806 29.9918 25.7806C22.8727 25.7806 17.1016 20.0094 17.1016 12.8903C17.1016 5.77117 22.8727 0 29.9918 0C37.1109 0 42.8821 5.77117 42.8821 12.8903Z" fill="#54C998"/>
<path opacity="0.8" d="M36.7806 3.25021C39.7312 4.88026 41.4357 7.44603 40.5878 8.98102C39.7398 10.516 36.6604 10.4389 33.7098 8.80889C30.7591 7.17884 29.0546 4.61307 29.9026 3.07808C30.7506 1.5431 33.83 1.62016 36.7806 3.25021Z" fill="white"/>
<path d="M0.992188 48.3368C0.992188 46.5571 2.43498 45.1143 4.21476 45.1143H55.7759C57.5556 45.1143 58.9984 46.5571 58.9984 48.3368V58.0045H0.992188V48.3368Z" fill="white"/>
<path d="M17.4688 41.8954C17.4688 40.1156 18.9115 38.6729 20.6913 38.6729H40.0267C41.8065 38.6729 43.2493 40.1156 43.2493 41.8954V45.118H17.4688V41.8954Z" fill="#9CABD1"/>
</svg>
