<svg width="20" height="23" viewBox="0 0 20 23" fill="none" xmlns="http://www.w3.org/2000/svg">
<path d="M19.4592 5.54866C18.1926 5.54866 17.0239 5.12904 16.0854 4.42116C15.009 3.60966 14.2357 2.4193 13.9626 1.04731C13.8949 0.708321 13.8585 0.358496 13.8551 0H10.2367V9.88702L10.2324 15.3026C10.2324 16.7505 9.28956 17.9781 7.98259 18.4099C7.60328 18.5351 7.19364 18.5945 6.76708 18.5711C6.22262 18.5412 5.7124 18.3769 5.26894 18.1116C4.32524 17.5472 3.68541 16.5233 3.66807 15.352C3.64076 13.5214 5.12069 12.0289 6.95002 12.0289C7.31111 12.0289 7.6579 12.0878 7.98259 12.1949V9.49255V8.5211C7.64013 8.47038 7.2916 8.44394 6.93918 8.44394C4.93689 8.44394 3.06422 9.27624 1.7256 10.7757C0.71384 11.9088 0.106955 13.3545 0.0133209 14.8704C-0.109357 16.8619 0.619339 18.7549 2.03251 20.1516C2.24015 20.3567 2.4582 20.547 2.68622 20.7225C3.89782 21.655 5.37905 22.1604 6.93918 22.1604C7.2916 22.1604 7.64013 22.1344 7.98259 22.0837C9.43998 21.8678 10.7847 21.2007 11.8458 20.1516C13.1498 18.8628 13.8702 17.1519 13.878 15.3308L13.8594 7.2436C14.4815 7.72348 15.1616 8.12055 15.8916 8.42876C17.0269 8.90777 18.2307 9.15052 19.4696 9.15009V6.52271V5.54779C19.4705 5.54866 19.4601 5.54866 19.4592 5.54866Z" fill="#857E9A"/>
</svg>
