<svg width="24" height="20" viewBox="0 0 24 20" fill="none" xmlns="http://www.w3.org/2000/svg">
<path d="M23.953 2.5696C23.0545 2.9652 22.1026 3.22634 21.128 3.3446C22.1541 2.72785 22.9224 1.76064 23.291 0.621599C22.34 1.1766 21.286 1.5806 20.164 1.8056C19.4238 1.01403 18.4429 0.48902 17.3736 0.3121C16.3044 0.13518 15.2067 0.316249 14.2509 0.82719C13.2952 1.33813 12.5349 2.15035 12.0881 3.13772C11.6412 4.1251 11.533 5.23237 11.78 6.2876C7.69 6.0946 4.067 4.1296 1.64 1.1616C1.19879 1.91141 0.968664 2.76662 0.974 3.6366C0.974 5.3466 1.844 6.8496 3.162 7.7326C2.38086 7.70773 1.61697 7.49653 0.934 7.1166V7.1766C0.933557 8.31299 1.32627 9.41454 2.04551 10.2944C2.76474 11.1742 3.76621 11.7781 4.88 12.0036C4.1583 12.197 3.40241 12.226 2.668 12.0886C2.98412 13.0666 3.59766 13.9215 4.42301 14.5341C5.24837 15.1467 6.24435 15.4863 7.272 15.5056C5.53153 16.8715 3.38248 17.6129 1.17 17.6106C0.78 17.6106 0.391 17.5876 0 17.5436C2.25571 18.9879 4.87851 19.7546 7.557 19.7526C16.61 19.7526 21.555 12.2566 21.555 5.7676C21.555 5.5576 21.555 5.3476 21.54 5.1376C22.506 4.44246 23.3392 3.57942 24 2.5896L23.953 2.5696Z" fill="#857E9A"/>
</svg>
